<?xml version="1.0" encoding="UTF-8" standalone="no"?>
<svg
   xmlns:dc="http://purl.org/dc/elements/1.1/"
   xmlns:cc="http://creativecommons.org/ns#"
   xmlns:rdf="http://www.w3.org/1999/02/22-rdf-syntax-ns#"
   xmlns:svg="http://www.w3.org/2000/svg"
   xmlns="http://www.w3.org/2000/svg"
   xmlns:sodipodi="http://sodipodi.sourceforge.net/DTD/sodipodi-0.dtd"
   xmlns:inkscape="http://www.inkscape.org/namespaces/inkscape"
   version="1.1"
   id="svg2"
   xml:space="preserve"
   width="666.66669"
   height="666.66669"
   viewBox="0 0 666.66669 666.66669"
   sodipodi:docname="2456057.ai"><metadata
     id="metadata8"><rdf:RDF><cc:Work
         rdf:about=""><dc:format>image/svg+xml</dc:format><dc:type
           rdf:resource="http://purl.org/dc/dcmitype/StillImage" /></cc:Work></rdf:RDF></metadata><defs
     id="defs6"><clipPath
       clipPathUnits="userSpaceOnUse"
       id="clipPath20"><path
         d="M 0,500 H 500 V 0 H 0 Z"
         id="path18" /></clipPath><clipPath
       clipPathUnits="userSpaceOnUse"
       id="clipPath32"><path
         d="M 186.88,410.845 H 466.034 V 100.442 H 186.88 Z"
         id="path30" /></clipPath><clipPath
       clipPathUnits="userSpaceOnUse"
       id="clipPath52"><path
         d="m 100.08,400.35 h 121.9 v -69.653 h -121.9 z"
         id="path50" /></clipPath><clipPath
       clipPathUnits="userSpaceOnUse"
       id="clipPath270"><path
         d="M 233.865,213.442 H 292.81 V 113.043 h -58.945 z"
         id="path268" /></clipPath><clipPath
       clipPathUnits="userSpaceOnUse"
       id="clipPath378"><path
         d="m 322.783,274.817 h 15.543 v -25.048 h -15.543 z"
         id="path376" /></clipPath><clipPath
       clipPathUnits="userSpaceOnUse"
       id="clipPath394"><path
         d="m 366.068,249.769 h 13.759 V 115.525 h -13.759 z"
         id="path392" /></clipPath><clipPath
       clipPathUnits="userSpaceOnUse"
       id="clipPath410"><path
         d="m 314.025,306.692 h 34.24 v -20.723 h -34.24 z"
         id="path408" /></clipPath><clipPath
       clipPathUnits="userSpaceOnUse"
       id="clipPath426"><path
         d="M 382.812,319.279 H 434.9 v -53.742 h -52.088 z"
         id="path424" /></clipPath><clipPath
       clipPathUnits="userSpaceOnUse"
       id="clipPath450"><path
         d="m 326.282,230.517 h 23.907 V 115.483 h -23.907 z"
         id="path448" /></clipPath><clipPath
       clipPathUnits="userSpaceOnUse"
       id="clipPath534"><path
         d="M 0,500 H 500 V 0 H 0 Z"
         id="path532" /></clipPath></defs><sodipodi:namedview
     pagecolor="#ffffff"
     bordercolor="#666666"
     borderopacity="1"
     objecttolerance="10"
     gridtolerance="10"
     guidetolerance="10"
     inkscape:pageopacity="0"
     inkscape:pageshadow="2"
     inkscape:window-width="640"
     inkscape:window-height="480"
     id="namedview4" /><g
     id="g10"
     inkscape:groupmode="layer"
     inkscape:label="2456057"
     transform="matrix(1.3333333,0,0,-1.3333333,0,666.66667)"><path
       d="M 0,0 H 500 V 500 H 0 Z"
       style="fill:#ffffff;fill-opacity:1;fill-rule:nonzero;stroke:none"
       id="path12" /><g
       id="g14"><g
         id="g16"
         clip-path="url(#clipPath20)"><g
           id="g22"
           transform="translate(434.3535,100.4424)"><path
             d="m 0,0 c 25.375,0 40.736,25.984 25.822,44.487 -0.313,0.391 -0.637,0.775 -0.972,1.154 -9.12,10.338 -22.96,14.042 -35.217,19.81 -3.387,1.595 -6.794,3.456 -9.159,6.455 -3.293,4.174 -4.083,10.01 -3.403,15.378 2.848,22.46 27.34,36.304 31.293,58.579 2.99,16.852 -7.325,33.963 -21.299,42.882 -13.973,8.919 -30.863,11.161 -47.213,11.859 -16.35,0.697 -32.929,0.079 -48.843,4.066 -4.197,1.052 -8.543,2.564 -11.396,5.956 -3.234,3.845 -3.913,9.404 -3.398,14.499 1.386,13.737 32.687,60.966 17.011,76.552 -6.173,6.136 -14.546,9.455 -22.971,8.61 -8.426,-0.845 -16.295,-4.714 -23.672,-9.059 -15.59,-9.184 -69.964,-70.06 -89.529,-79.26 -19.228,-9.043 -41.312,-6.384 -62.385,-5.949 -21.072,0.434 -44.494,-2.707 -58.267,-19.417 -4.878,-5.919 -8.246,-13.892 -6.608,-21.52 1.022,-4.759 3.873,-8.876 7.11,-12.384 7.393,-8.012 17.034,-13.538 24.027,-21.935 6.993,-8.397 10.684,-21.729 4.107,-30.487 -2.552,-3.398 -6.263,-5.585 -9.897,-7.633 -20.327,-11.462 -43.134,-23.225 -52.014,-45.546 -4.534,-11.398 -4.447,-23.965 -1.081,-35.795 C -394.387,8.768 -381.853,0 -367.496,0 Z"
             style="fill:#cae2ff;fill-opacity:1;fill-rule:nonzero;stroke:none"
             id="path24" /></g><g
           id="g26"><g
             id="g28" /><g
             id="g40"><g
               clip-path="url(#clipPath32)"
               opacity="0.410004"
               id="g38"><g
                 transform="translate(459.2031,146.083)"
                 id="g36"><path
                   d="m 0,0 c -9.119,10.338 -22.96,14.042 -35.217,19.811 -3.387,1.594 -6.794,3.456 -9.159,6.455 -3.293,4.173 -4.083,10.009 -3.402,15.378 2.847,22.46 27.34,36.303 31.293,58.579 2.99,16.851 -7.326,33.962 -21.299,42.881 -13.974,8.919 -30.863,11.162 -47.214,11.859 -16.35,0.697 -32.929,0.079 -48.843,4.066 -4.197,1.052 -8.543,2.565 -11.395,5.956 -3.235,3.845 -3.913,9.405 -3.399,14.5 1.386,13.737 32.688,60.966 17.011,76.551 -5.358,5.327 -12.377,8.526 -19.647,8.726 9.906,-2.693 17.149,-8.355 11.876,-19.956 -12.177,-26.791 -125.184,-115.929 -45.787,-124.697 79.397,-8.768 -52.119,-79.396 7.793,-84.267 45.703,-3.716 -48.051,-57.256 -94.934,-81.483 H -24.85 c 25.375,0 40.737,25.985 25.823,44.488 C 0.659,-0.763 0.335,-0.379 0,0"
                   style="fill:#a6cef4;fill-opacity:1;fill-rule:nonzero;stroke:none"
                   id="path34" /></g></g></g></g><g
           id="g42"
           transform="translate(99.0376,336.7202)"><path
             d="M 0,0 C 0,0 82.29,-28.327 118.881,37.889 155.473,104.104 -69.066,24.602 0,0"
             style="fill:#cae2ff;fill-opacity:1;fill-rule:nonzero;stroke:none"
             id="path44" /></g><g
           id="g46"><g
             id="g48" /><g
             id="g60"><g
               clip-path="url(#clipPath52)"
               opacity="0.410004"
               id="g58"><g
                 transform="translate(200.1426,400.3501)"
                 id="g56"><path
                   d="m 0,0 c 5.831,-3.871 6.987,-10.853 0.893,-21.882 -25.889,-46.846 -74.644,-46.37 -100.956,-42.083 9.604,-2.987 83.656,-23.632 117.839,38.224 C 27.886,-7.446 18.058,-0.279 0,0"
                   style="fill:#a6cef4;fill-opacity:1;fill-rule:nonzero;stroke:none"
                   id="path54" /></g></g></g></g><g
           id="g62"
           transform="translate(71.9546,130.9482)"><path
             d="M 0,0 C 0,0 -3.003,2.805 -0.988,13.447 1.028,24.089 6.142,34.309 3.633,45.854 1.125,57.399 -18.548,86.51 -18.615,88.446 -18.681,90.382 -24.684,54.58 -14.51,40.477 -4.337,26.373 -3.112,21.48 -3.564,14.064 -4.016,6.647 -3.459,0.675 -2.343,-1.05 Z"
             style="fill:#4286e8;fill-opacity:1;fill-rule:nonzero;stroke:none"
             id="path64" /></g><g
           id="g66"
           transform="translate(70.0928,152.3525)"><path
             d="m 0,0 c -1.183,-4.748 -1.897,-16.651 -0.007,-19.501 0.176,-0.266 0.43,-0.114 0.746,0.377 -0.576,1.969 -0.954,5.417 0.135,11.167 2.016,10.642 7.13,20.861 4.621,32.406 -2.509,11.546 -22.182,40.656 -22.248,42.593 0,0 2.965,-24.254 12.948,-40.948 C 3.343,14.142 1.183,4.747 0,0"
             style="fill:#1d54b5;fill-opacity:1;fill-rule:nonzero;stroke:none"
             id="path68" /></g><g
           id="g70"
           transform="translate(75.542,131.6865)"><path
             d="m 0,0 c 0,0 -5.779,14.43 4.015,26.924 9.795,12.494 25.46,28.536 25.772,34.89 0,0 4.026,-30.172 -8.724,-38.714 C 8.314,14.559 -0.626,13.196 1.584,0.055 Z"
             style="fill:#4286e8;fill-opacity:1;fill-rule:nonzero;stroke:none"
             id="path72" /></g><g
           id="g74"
           transform="translate(89.3027,160.8525)"><path
             d="m 0,0 c -14.216,-10.348 -15.378,-22.267 -13.172,-27.795 0.172,-0.43 0.496,-0.692 0.925,-0.832 -1.906,12.685 6.961,14.127 19.55,22.561 12.749,8.542 8.723,38.714 8.723,38.714 0,0 -1.81,-22.3 -16.026,-32.648"
             style="fill:#1d54b5;fill-opacity:1;fill-rule:nonzero;stroke:none"
             id="path76" /></g><g
           id="g78"
           transform="translate(66.0366,131.3623)"><path
             d="m 0,0 c 0,0 1.854,7.642 0.868,15.891 -0.987,8.248 -9.604,12.888 -17.655,21.601 -4.143,4.483 -5.368,28.189 -2.8,30.392 0,0 -14.215,-17.227 -12.022,-29.84 2.192,-12.614 25.382,-20.81 27.528,-26.904 2.146,-6.095 1.969,-11.212 1.969,-11.212 z"
             style="fill:#4286e8;fill-opacity:1;fill-rule:nonzero;stroke:none"
             id="path80" /></g><g
           id="g82"
           transform="translate(41.646,192.4658)"><path
             d="m 0,0 c -4.699,-12.724 0.118,-28.132 15.724,-37.702 11.49,-7.046 7.831,-21.697 7.831,-21.697 l 1.877,5.78 c 0.166,2.499 0.185,5.409 -0.174,8.406 -0.986,8.248 -9.603,12.889 -17.654,21.602 C 3.608,-19.288 2.328,2.911 4.546,6.459 3.895,5.64 2.055,3.256 0,0"
             style="fill:#1d54b5;fill-opacity:1;fill-rule:nonzero;stroke:none"
             id="path84" /></g><g
           id="g86"
           transform="translate(46.1919,198.9248)"><path
             d="M 0,0 C 0.161,0.203 0.258,0.321 0.258,0.321 0.167,0.243 0.082,0.131 0,0"
             style="fill:#49b4d6;fill-opacity:1;fill-rule:nonzero;stroke:none"
             id="path88" /></g><g
           id="g90"
           transform="translate(78.5161,132.3174)"><path
             d="m 0,0 c 0,0 3.332,12.361 11.572,14.025 8.24,1.664 17.702,13.84 18.213,16.229 C 29.785,30.254 28.396,7.29 0,0"
             style="fill:#4286e8;fill-opacity:1;fill-rule:nonzero;stroke:none"
             id="path92" /></g><g
           id="g94"
           transform="translate(89.6172,142.2559)"><path
             d="M 0,0 C -5.049,-2.524 -7.148,-5.919 -7.894,-9.002 17.387,-0.872 18.684,20.315 18.684,20.315 18.583,19.843 18.122,18.98 17.4,17.9 14.92,13.556 8.918,4.459 0,0"
             style="fill:#1d54b5;fill-opacity:1;fill-rule:nonzero;stroke:none"
             id="path96" /></g><g
           id="g98"
           transform="translate(96.3472,136.8691)"><path
             d="m 0,0 h -43.097 l 5.118,-32.188 c 0.389,-2.442 2.494,-4.239 4.966,-4.239 h 22.93 c 2.472,0 4.577,1.797 4.965,4.239 z"
             style="fill:#f95858;fill-opacity:1;fill-rule:nonzero;stroke:none"
             id="path100" /></g><g
           id="g102"
           transform="translate(95.5005,131.543)"><path
             d="M 0,0 0.847,5.326 H -42.25 L -41.403,0 Z"
             style="fill:#e53838;fill-opacity:1;fill-rule:nonzero;stroke:none"
             id="path104" /></g><g
           id="g106"
           transform="translate(85.9063,136.8691)"><path
             d="m 0,0 -5.118,-32.188 c -0.388,-2.442 -2.493,-4.239 -4.965,-4.239 H 0.358 c 2.472,0 4.577,1.797 4.965,4.239 L 10.441,0 Z"
             style="fill:#e53838;fill-opacity:1;fill-rule:nonzero;stroke:none"
             id="path108" /></g><path
           d="m 266.018,173.742 h -8.971 v -73.365 h 8.971 z"
           style="fill:#ffffff;fill-opacity:1;fill-rule:nonzero;stroke:none"
           id="path110" /><path
           d="m 262.493,100.377 h 3.523 v 73.365 h -3.523 z"
           style="fill:#e8f2fc;fill-opacity:1;fill-rule:nonzero;stroke:none"
           id="path112" /><g
           id="g114"
           transform="translate(287.2988,106.3848)"><path
             d="m 0,0 h -49.034 c -1.658,0 -3.004,-1.345 -3.004,-3.004 0,-1.658 1.346,-3.004 3.004,-3.004 H 0 c 1.659,0 3.004,1.346 3.004,3.004 C 3.004,-1.345 1.659,0 0,0"
             style="fill:#ffffff;fill-opacity:1;fill-rule:nonzero;stroke:none"
             id="path116" /></g><g
           id="g118"
           transform="translate(287.2988,106.3848)"><path
             d="m 0,0 h -49.034 c -1.092,0 -2.039,-0.589 -2.565,-1.461 h 42.466 c 1.659,0 3.004,-1.345 3.004,-3.004 0,-0.566 -0.166,-1.091 -0.439,-1.543 H 0 c 1.659,0 3.004,1.346 3.004,3.004 C 3.004,-1.345 1.659,0 0,0"
             style="fill:#e8f2fc;fill-opacity:1;fill-rule:nonzero;stroke:none"
             id="path120" /></g><path
           d="m 266.018,173.742 h -8.971 v -6.532 h 8.971 z"
           style="fill:#e8f2fc;fill-opacity:1;fill-rule:nonzero;stroke:none"
           id="path122" /><g
           id="g124"
           transform="translate(312.4893,276.0283)"><path
             d="m 0,0 c -1.265,0.56 -2.665,0.869 -4.152,0.869 h -50.499 c -4.934,0 -9.173,-3.505 -10.1,-8.352 l -15.825,-82.73 c -0.252,-1.332 -0.242,-2.655 0,-3.891 0.005,-0.028 0.014,-0.055 0.019,-0.084 h -14.038 c -2.31,0 -4.183,-1.873 -4.183,-4.183 0,-2.31 1.873,-4.183 4.183,-4.183 h 45.379 v 0.126 h 29.248 c 4.934,0 9.173,3.505 10.1,8.353 L 5.948,-11.346 C 6.875,-6.469 4.22,-1.864 0,0"
             style="fill:#ff9933;fill-opacity:1;fill-rule:nonzero;stroke:none"
             id="path126" /></g><g
           id="g128"
           transform="translate(318.4346,264.6826)"><path
             d="m 0,0 -15.812,-82.732 c -0.924,-4.845 -5.164,-8.346 -10.096,-8.346 h -29.254 v -0.133 h -45.375 c -2.312,0 -4.183,1.872 -4.183,4.185 0,2.312 1.871,4.183 4.183,4.183 h 14.039 c -0.011,0.033 -0.022,0.056 -0.022,0.088 0.121,-0.011 0.264,-0.011 0.385,-0.011 h 50.494 c 6.783,0 12.628,4.823 13.895,11.485 l 15.8,82.621 C -1.729,9.479 0.925,4.877 0,0"
             style="fill:#e8f2fc;fill-opacity:1;fill-rule:nonzero;stroke:none"
             id="path130" /></g><g
           id="g132"
           transform="translate(296.7881,193.8965)"><path
             d="m 0,0 -0.1,-0.495 c -1.266,-6.662 -7.112,-11.484 -13.894,-11.484 h -50.494 c -0.121,0 -0.264,0 -0.386,0.01 0,-0.032 0.011,-0.054 0.022,-0.088 H -78.89 c -2.092,0 -3.832,-1.541 -4.129,-3.545 v 11.308 c 0,0.022 -0.011,0.055 -0.011,0.088 -0.33,2.235 1.552,4.206 3.821,4.206 z"
             style="fill:#ffffff;fill-opacity:1;fill-rule:nonzero;stroke:none"
             id="path134" /></g><g
           id="g136"
           transform="translate(312.4893,276.0283)"><path
             d="m 0,0 -15.797,-82.624 c -1.274,-6.662 -7.116,-11.489 -13.894,-11.489 H -80.19 c -0.126,0 -0.261,0 -0.386,0.009 -0.242,1.236 -0.252,2.559 0,3.891 l 15.825,82.73 c 0.927,4.847 5.166,8.352 10.1,8.352 H -4.152 C -2.665,0.869 -1.265,0.56 0,0"
             style="fill:#ffffff;fill-opacity:1;fill-rule:nonzero;stroke:none"
             id="path138" /></g><g
           id="g140"
           transform="translate(192.8154,295.8623)"><path
             d="m 0,0 h -85.966 c -2,0 -3.534,-1.773 -3.245,-3.752 l 7.36,-50.545 c 0.235,-1.611 1.617,-2.807 3.246,-2.807 H 7.361 c 1.999,0 3.533,1.774 3.245,3.752 L 3.245,-2.807 C 3.01,-1.195 1.628,0 0,0"
             style="fill:#1d54b5;fill-opacity:1;fill-rule:nonzero;stroke:none"
             id="path142" /></g><g
           id="g144"
           transform="translate(180.7896,295.8623)"><path
             d="m 0,0 h -73.94 c -2,0 -3.534,-1.773 -3.246,-3.752 l 3.254,-22.34 c 7.927,-3.468 16.913,-5.438 26.447,-5.438 24.652,0 39.178,13.097 47.485,31.53"
             style="fill:#3070ce;fill-opacity:1;fill-rule:nonzero;stroke:none"
             id="path146" /></g><g
           id="g148"
           transform="translate(153.8154,257.2832)"><path
             d="m 0,0 h -10.974 -5.303 c -1.406,0 -2.486,-1.243 -2.283,-2.636 l 4.932,-33.851 c 0,-0.105 0.007,-0.216 0.02,-0.321 l 0.222,-1.334 c 0.164,-1.131 1.138,-1.969 2.277,-1.969 h 5.285 10.78 z"
             style="fill:#4286e8;fill-opacity:1;fill-rule:nonzero;stroke:none"
             id="path150" /></g><g
           id="g152"
           transform="translate(177.5835,219.5381)"><path
             d="m 0,0 c -0.02,1.274 -1.059,2.298 -2.333,2.298 h -12.315 c -1.814,0 -3.351,1.34 -3.597,3.138 l -3.609,26.368 h 2.14 c 1.404,0 2.482,1.246 2.279,2.635 l -0.218,1.336 c -0.165,1.132 -1.136,1.972 -2.28,1.972 l -4.271,-10e-4 c -1.949,0 -3.45,-1.718 -3.191,-3.648 l 4.502,-33.545 c 0.225,-1.671 1.65,-2.919 3.336,-2.919 L -2.333,-2.369 C -1.03,-2.369 0.021,-1.303 0,0"
             style="fill:#1d54b5;fill-opacity:1;fill-rule:nonzero;stroke:none"
             id="path154" /></g><g
           id="g156"
           transform="translate(168.7349,246.0576)"><path
             d="m 0,0 c 0,-0.852 -0.69,-1.542 -1.542,-1.542 -0.851,0 -1.541,0.69 -1.541,1.542 0,0.851 0.69,1.541 1.541,1.541 C -0.69,1.541 0,0.851 0,0"
             style="fill:#4286e8;fill-opacity:1;fill-rule:nonzero;stroke:none"
             id="path158" /></g><g
           id="g160"
           transform="translate(176.6504,246.0576)"><path
             d="m 0,0 c 0,-0.852 -0.69,-1.542 -1.541,-1.542 -0.851,0 -1.541,0.69 -1.541,1.542 0,0.851 0.69,1.541 1.541,1.541 C -0.69,1.541 0,0.851 0,0"
             style="fill:#4286e8;fill-opacity:1;fill-rule:nonzero;stroke:none"
             id="path162" /></g><g
           id="g164"
           transform="translate(183.5854,246.0576)"><path
             d="m 0,0 c 0,-0.852 -0.69,-1.542 -1.541,-1.542 -0.851,0 -1.541,0.69 -1.541,1.542 0,0.851 0.69,1.541 1.541,1.541 C -0.69,1.541 0,0.851 0,0"
             style="fill:#4286e8;fill-opacity:1;fill-rule:nonzero;stroke:none"
             id="path166" /></g><g
           id="g168"
           transform="translate(191.1475,272.4194)"><path
             d="m 0,0 4.493,-30.854 c 0.235,-1.611 1.617,-2.807 3.246,-2.807 h 1.29 c 1.999,0 3.534,1.774 3.245,3.752 L 4.913,20.636 C 4.678,22.248 3.296,23.443 1.668,23.443 H 0.377 c -1.999,0 -3.533,-1.774 -3.245,-3.752 L 0,0"
             style="fill:#4286e8;fill-opacity:1;fill-rule:nonzero;stroke:none"
             id="path170" /></g><g
           id="g172"
           transform="translate(158.6226,290.3442)"><path
             d="m 0,0 h -30.021 c -0.733,0 -1.293,-0.657 -1.176,-1.381 l 0.202,-1.244 c 0.093,-0.577 0.591,-1 1.176,-1 h 30.02 c 0.734,0 1.294,0.657 1.176,1.381 L 1.176,-1 C 1.083,-0.424 0.584,0 0,0"
             style="fill:#4286e8;fill-opacity:1;fill-rule:nonzero;stroke:none"
             id="path174" /></g><g
           id="g176"
           transform="translate(280.498,274.9404)"><path
             d="m 0,0 c -0.952,7.317 -11.669,3.895 -7.646,10.713 3.72,6.306 -0.611,9.096 -5.728,10.08 -6.526,1.255 -2.821,3.824 -5.997,9.914 -4.035,7.737 -10.259,5.439 -10.259,5.439 0,0 -7.803,4.241 -15.752,-2.466 -8.376,-7.067 -6.55,-13.318 -2.066,-21.904 2.266,-4.339 -0.515,-8.204 -2.499,-16.181 -2.379,-9.571 9.437,-28.835 34.719,-15.823 C -5.45,-15.196 0.505,-3.883 0,0"
             style="fill:#13448c;fill-opacity:1;fill-rule:nonzero;stroke:none"
             id="path178" /></g><g
           id="g180"
           transform="translate(245.5737,272.9404)"><path
             d="m 0,0 c 0,0 -3.859,-0.414 -7.787,-4.342 -2.641,-2.64 -15.567,-28.369 -15.567,-28.369 l -11.93,36.536 -8.735,-0.672 c 0,0 9.836,-58.76 17.487,-58.87 7.236,-0.103 30.219,37.937 30.219,37.937 z"
             style="fill:#f95858;fill-opacity:1;fill-rule:nonzero;stroke:none"
             id="path182" /></g><g
           id="g184"
           transform="translate(270.2451,257.5381)"><path
             d="m 0,0 7.649,-28.634 -45.225,-3.695 0.207,-8.166 c 0,0 52.136,-0.234 61.956,-0.13 6.541,0.069 -5.774,51.858 -13.63,57.785 -6.213,4.686 -23.388,3.437 -23.388,3.437 l -12.24,-5.195 c 0,0 -14.197,-14.058 -5.72,-27.29 6.677,-10.423 -1.834,-30.672 -1.834,-30.672 l 28.906,-1.719 25.816,-0.243 z"
             style="fill:#f95858;fill-opacity:1;fill-rule:nonzero;stroke:none"
             id="path186" /></g><g
           id="g188"
           transform="translate(241.3872,225.9209)"><path
             d="m 0,0 1.619,0.296 c 1.551,6.77 1.828,16.021 -1.705,20.468 -7.001,8.809 0.207,21.604 4.254,26.23 H 4.162 C 3.514,46.34 -9.801,32.644 -1.533,19.728 2.417,13.559 1.452,5.527 0,0"
             style="fill:#e54848;fill-opacity:1;fill-rule:nonzero;stroke:none"
             id="path190" /></g><g
           id="g192"
           transform="translate(232.7988,223.3223)"><path
             d="m 0,0 c -4.783,-0.175 -9.898,-1.886 -12.292,-4.698 -0.532,-0.625 -0.08,-1.587 0.74,-1.587 H 0.075 Z"
             style="fill:#ffb19e;fill-opacity:1;fill-rule:nonzero;stroke:none"
             id="path194" /></g><g
           id="g196"
           transform="translate(257.8223,287.749)"><path
             d="m 0,0 v -9.656 l -8.655,-9.909 -0.054,0.11 -2.357,5.042 v 5.417 c -4.316,0.606 -8.125,3.876 -9.149,8.556 l -1.222,6.683 c 0,0 6.452,0.683 11.582,5.902 0,0 1.542,-2.83 3.754,-5.021 1.609,-1.597 3.832,-1.993 4.68,-2.863 C -0.287,3.105 0.121,1.585 0,0"
             style="fill:#ffb19e;fill-opacity:1;fill-rule:nonzero;stroke:none"
             id="path198" /></g><g
           id="g200"
           transform="translate(255.4561,296.1143)"><path
             d="m 0,0 c 0,0 -0.327,4.074 -1.861,7.544 -1.77,4.001 -4.262,8.688 -9.433,8.702 0,0 12.557,1.951 14.659,-15.529 z"
             style="fill:#ff4751;fill-opacity:1;fill-rule:nonzero;stroke:none"
             id="path202" /></g><g
           id="g204"
           transform="translate(262.9697,293.2422)"><path
             d="m 0,0 c -0.362,3.362 -3.179,5.815 -6.291,5.479 -3.111,-0.335 -5.339,-3.333 -4.977,-6.695 0.364,-3.363 3.18,-5.816 6.291,-5.48 C -1.865,-6.36 0.363,-3.362 0,0"
             style="fill:#ff4751;fill-opacity:1;fill-rule:nonzero;stroke:none"
             id="path206" /></g><g
           id="g208"
           transform="translate(259.0527,287.1392)"><path
             d="m 0,0 c -2.996,-0.323 -5.707,2.039 -6.057,5.276 -0.324,3 1.497,5.695 4.15,6.331 -0.156,-0.003 -0.31,-0.007 -0.467,-0.024 -3.111,-0.336 -5.339,-3.334 -4.977,-6.696 0.364,-3.363 3.18,-5.816 6.291,-5.48 0.959,0.103 1.832,0.461 2.574,1.003 C 1.042,0.201 0.535,0.058 0,0"
             style="fill:#cc3241;fill-opacity:1;fill-rule:nonzero;stroke:none"
             id="path210" /></g><g
           id="g212"
           transform="translate(260.7949,293.0854)"><path
             d="M 0,0 C -0.176,1.629 -1.541,2.818 -3.05,2.656 -4.558,2.493 -5.638,1.04 -5.462,-0.589 c 0.177,-1.63 1.541,-2.819 3.05,-2.656 C -0.904,-3.083 0.176,-1.63 0,0"
             style="fill:#cc3241;fill-opacity:1;fill-rule:nonzero;stroke:none"
             id="path214" /></g><g
           id="g216"
           transform="translate(254.9375,282.8496)"><path
             d="M 0,0 C -0.363,-0.474 -2.412,-3.05 -4.052,-4.426 -4.713,-4.977 -5.065,-5.792 -5.065,-6.65 l -0.76,-7.906 -2.356,5.043 v 5.395 l 0.055,0.055 c 0,0 5.45,0.826 8.126,4.063"
             style="fill:#f48f7a;fill-opacity:1;fill-rule:nonzero;stroke:none"
             id="path218" /></g><g
           id="g220"
           transform="translate(251.2549,283.2637)"><path
             d="M 0,0 -0.095,0.55 C 3.063,1.09 5.37,5.336 5.394,5.379 L 5.886,5.115 C 5.787,4.93 3.423,0.585 0,0"
             style="fill:#ff4751;fill-opacity:1;fill-rule:nonzero;stroke:none"
             id="path222" /></g><g
           id="g224"
           transform="translate(251.8437,283.5762)"><path
             d="M 0,0 C -0.075,0.518 -0.859,0.802 -1.751,0.635 -2.643,0.468 -3.306,-0.087 -3.231,-0.604 -3.156,-1.123 -2.373,-1.407 -1.48,-1.24 -0.589,-1.073 0.074,-0.518 0,0"
             style="fill:#ff4751;fill-opacity:1;fill-rule:nonzero;stroke:none"
             id="path226" /></g><g
           id="g228"
           transform="translate(209.5776,276.541)"><path
             d="m 0,0 c 0,0 1.233,10.111 0.123,10.481 -1.109,0.37 -2.219,-3.946 -2.219,-3.946 0,0 -4.686,9.124 -7.892,8.138 -3.205,-0.986 2.689,-15.018 2.689,-15.018 z"
             style="fill:#ffb19e;fill-opacity:1;fill-rule:nonzero;stroke:none"
             id="path230" /></g><g
           id="g232"
           transform="translate(241.3701,225.9756)"><path
             d="m 0,0 35.612,2.979 c 1.222,0.102 2.084,1.241 1.847,2.443 -1.315,6.657 -5.118,25.745 -5.346,25.176 C 31.838,29.909 35.697,8.132 31.148,5.927 28.038,4.419 0,0 0,0"
             style="fill:#e54848;fill-opacity:1;fill-rule:nonzero;stroke:none"
             id="path234" /></g><g
           id="g236"
           transform="translate(265.5889,120.6309)"><path
             d="m 0,0 c -0.258,-0.063 -0.505,-0.214 -0.679,-0.461 -2.265,-3.153 -4.276,-3.898 -8.252,-4.433 -0.237,-0.033 -0.484,-0.115 -0.746,-0.25 0.305,0.458 1.63,2.629 0.717,4.583 -1.027,2.203 -2.268,3.805 -2.268,3.805 l 5.809,3.458 c 0,0 3.562,-4.109 5.419,-6.702"
             style="fill:#ffb19e;fill-opacity:1;fill-rule:nonzero;stroke:none"
             id="path238" /></g><g
           id="g240"
           transform="translate(269.8896,113.2451)"><path
             d="m 0,0 c -1.027,-0.983 -17.603,-10.044 -21.541,-12.317 -0.481,-0.278 -1.455,-0.786 -1.634,-0.26 -0.279,0.821 6.889,14.652 9.944,15.066 3.973,0.538 5.985,1.282 8.249,4.437 0.473,0.661 1.459,0.657 1.907,-0.022 C -1.484,4.497 0.825,0.79 0,0"
             style="fill:#13448c;fill-opacity:1;fill-rule:nonzero;stroke:none"
             id="path242" /></g><g
           id="g244"
           transform="translate(238.2485,215.0244)"><path
             d="m 0,0 c 0,0 -40.223,-18.645 -41.29,-31.576 -0.948,-11.5 58.332,-64.112 58.332,-64.112 l 9.373,3.859 -32.444,52.295 c 0,0 34.369,16.94 42.768,37.337 z"
             style="fill:#13448c;fill-opacity:1;fill-rule:nonzero;stroke:none"
             id="path246" /></g><g
           id="g248"
           transform="translate(212.6133,186.8389)"><path
             d="M 0,0 C -2.729,-5.25 -4.733,-12.582 -6.131,-19.227 -1.577,-24.634 4.167,-30.72 10.104,-36.706 5.718,-19.38 1.826,-2.003 3.171,0.484 5.736,5.229 22.78,17.848 34.826,24.124 34.826,24.124 6.331,12.178 0,0"
             style="fill:#09326d;fill-opacity:1;fill-rule:nonzero;stroke:none"
             id="path250" /></g><g
           id="g252"
           transform="translate(241.8911,109.833)"><path
             d="m 0,0 c -0.256,0.071 -0.544,0.06 -0.817,-0.07 -3.517,-1.645 -5.636,-1.313 -9.366,0.163 -0.223,0.087 -0.479,0.136 -0.774,0.146 0.491,0.251 2.707,1.498 2.865,3.649 0.179,2.424 -0.12,4.427 -0.12,4.427 l 6.758,0.18 c 0,0 1.1,-5.326 1.454,-8.495"
             style="fill:#ffb19e;fill-opacity:1;fill-rule:nonzero;stroke:none"
             id="path254" /></g><g
           id="g256"
           transform="translate(242.0356,100.7959)"><path
             d="m 0,0 c -1.377,-0.356 -20.94,-0.14 -25.487,-0.199 -0.555,-0.007 -0.979,0.492 -0.878,1.038 0.157,0.852 13.168,9.42 16.036,8.288 C -6.599,7.656 -4.48,7.321 -0.964,8.969 -0.228,9.314 0.63,8.829 0.69,8.018 0.902,5.142 1.106,0.286 0,0"
             style="fill:#13448c;fill-opacity:1;fill-rule:nonzero;stroke:none"
             id="path258" /></g><g
           id="g260"
           transform="translate(292.6025,213.1016)"><path
             d="M 0,0 C 0,0 3.369,-22.778 -17.047,-28.544 -33.143,-33.089 -50.4,-35.408 -50.4,-35.408 l 1.235,-64.651 h -10.736 c 0,0 -19.708,69.131 -16.92,74.279 3.166,5.844 28.244,23.597 38.958,26.801 z"
             style="fill:#1d54b5;fill-opacity:1;fill-rule:nonzero;stroke:none"
             id="path262" /></g><g
           id="g264"><g
             id="g266" /><g
             id="g278"><g
               clip-path="url(#clipPath270)"
               opacity="0.130005"
               id="g276"><g
                 transform="translate(242.2017,177.6934)"
                 id="g274"><path
                   d="M 0,0 C 0,0 17.258,2.319 33.354,6.864 53.77,12.63 50.401,35.408 50.401,35.408 L 37.76,35.749 C 33.963,27.582 21.613,7.363 -8.337,5.183 l 6.781,-69.833 h 2.792 z"
                   style="fill:#0e367c;fill-opacity:1;fill-rule:nonzero;stroke:none"
                   id="path272" /></g></g></g></g><g
           id="g280"
           transform="translate(109.3296,100.3867)"><path
             d="m 0,0 -4.495,0.034 18.689,112.325 4.523,0.036 z"
             style="fill:#ffffff;fill-opacity:1;fill-rule:nonzero;stroke:none"
             id="path282" /></g><g
           id="g284"
           transform="translate(294.4648,100.4238)"><path
             d="m 0,0 4.775,-0.037 -23.171,113.642 -4.746,-0.036 z"
             style="fill:#ffffff;fill-opacity:1;fill-rule:nonzero;stroke:none"
             id="path286" /></g><g
           id="g288"
           transform="translate(126.814,206.5537)"><path
             d="M 0,0 1.232,6.228 -3.29,6.192 -4.515,0 Z"
             style="fill:#e4edf7;fill-opacity:1;fill-rule:nonzero;stroke:none"
             id="path290" /></g><g
           id="g292"
           transform="translate(277.5889,206.5537)"><path
             d="M 0,0 -1.521,7.476 -6.266,7.439 -4.754,0 Z"
             style="fill:#e4edf7;fill-opacity:1;fill-rule:nonzero;stroke:none"
             id="path294" /></g><g
           id="g296"
           transform="translate(303.3311,217.0986)"><path
             d="m 0,0 h -202.675 c -1.261,0 -2.283,-1.022 -2.283,-2.283 0,-1.261 1.022,-2.283 2.283,-2.283 H 0 c 1.261,0 2.283,1.022 2.283,2.283 C 2.283,-1.022 1.261,0 0,0"
             style="fill:#ffffff;fill-opacity:1;fill-rule:nonzero;stroke:none"
             id="path298" /></g><g
           id="g300"
           transform="translate(223.25,316.6704)"><path
             d="m 0,0 -5.341,30.925 c -0.208,1.431 -1.435,2.493 -2.882,2.493 L -57.91,32.875 c -1.776,0 -3.138,-1.576 -2.882,-3.333 l 4.686,-27.135 2.37,-15.363 c 0.125,-0.812 1.184,-1.045 1.639,-0.36 l 6.324,9.515 42.891,0.469 C -1.107,-3.332 0.256,-1.757 0,0"
             style="fill:#1d54b5;fill-opacity:1;fill-rule:nonzero;stroke:none"
             id="path302" /></g><g
           id="g304"
           transform="translate(205.5815,340.4932)"><path
             d="m 0,0 h -28.795 c -0.497,0 -0.874,-0.444 -0.795,-0.933 l 0.136,-0.84 c 0.063,-0.39 0.4,-0.676 0.794,-0.676 H 0.136 c 0.495,0 0.873,0.444 0.794,0.933 l -0.136,0.84 C 0.731,-0.286 0.395,0 0,0"
             style="fill:#ffffff;fill-opacity:1;fill-rule:nonzero;stroke:none"
             id="path306" /></g><g
           id="g308"
           transform="translate(206.5488,332.8496)"><path
             d="m 0,0 h -28.795 c -0.496,0 -0.874,-0.444 -0.795,-0.933 l 0.136,-0.84 c 0.063,-0.39 0.4,-0.676 0.795,-0.676 H 0.136 c 0.496,0 0.874,0.444 0.795,0.933 l -0.137,0.84 C 0.731,-0.286 0.395,0 0,0"
             style="fill:#ffffff;fill-opacity:1;fill-rule:nonzero;stroke:none"
             id="path310" /></g><g
           id="g312"
           transform="translate(199.6899,324.5522)"><path
             d="m 0,0 -13.325,-0.023 c -0.496,0 -0.874,-0.444 -0.795,-0.934 l 0.136,-0.839 c 0.063,-0.39 0.4,-0.677 0.795,-0.677 l 13.325,0.024 c 0.496,0 0.874,0.444 0.794,0.933 l -0.136,0.84 C 0.731,-0.286 0.395,0 0,0"
             style="fill:#ffffff;fill-opacity:1;fill-rule:nonzero;stroke:none"
             id="path314" /></g><g
           id="g316"
           transform="translate(425.0898,365.6772)"><path
             d="m 0,0 6.611,29.089 c 0.342,1.347 -0.413,2.345 -1.773,2.345 l -46.942,-0.511 c -1.669,0 -3.543,-1.482 -3.964,-3.134 L -51.869,2.265 -55.42,-12.187 c -0.188,-0.764 0.72,-0.983 1.405,-0.339 l 9.529,8.95 40.521,0.442 c 1.67,0 3.544,1.481 3.965,3.134"
             style="fill:#1d54b5;fill-opacity:1;fill-rule:nonzero;stroke:none"
             id="path318" /></g><g
           id="g320"
           transform="translate(416.708,387.665)"><path
             d="m 0,0 h -25.771 c -0.443,0 -0.94,-0.397 -1.044,-0.835 l -0.179,-0.752 c -0.083,-0.349 0.115,-0.605 0.469,-0.605 h 25.77 c 0.443,0 0.941,0.398 1.045,0.836 l 0.179,0.751 C 0.552,-0.256 0.354,0 0,0"
             style="fill:#ffffff;fill-opacity:1;fill-rule:nonzero;stroke:none"
             id="path322" /></g><g
           id="g324"
           transform="translate(414.8379,380.8247)"><path
             d="m 0,0 h -25.771 c -0.443,0 -0.94,-0.397 -1.044,-0.835 l -0.179,-0.752 c -0.083,-0.349 0.115,-0.605 0.469,-0.605 h 25.77 c 0.443,0 0.941,0.397 1.045,0.835 l 0.179,0.752 C 0.552,-0.256 0.354,0 0,0"
             style="fill:#ffffff;fill-opacity:1;fill-rule:nonzero;stroke:none"
             id="path326" /></g><g
           id="g328"
           transform="translate(405.7295,373.3989)"><path
             d="m 0,0 -11.934,-0.021 c -0.444,0 -0.941,-0.397 -1.045,-0.835 l -0.179,-0.752 c -0.083,-0.349 0.116,-0.605 0.469,-0.605 l 11.934,0.021 c 0.443,0 0.941,0.397 1.045,0.835 l 0.179,0.752 C 0.552,-0.256 0.354,0 0,0"
             style="fill:#ffffff;fill-opacity:1;fill-rule:nonzero;stroke:none"
             id="path330" /></g><g
           id="g332"
           transform="translate(157.6875,316.8945)"><path
             d="m 0,0 c 0.644,-0.535 1.605,0.021 1.462,0.846 l -6.37,36.727 c -0.177,1.215 -1.219,2.115 -2.446,2.115 l -42.167,-0.46 c -1.506,0 -2.663,-1.337 -2.445,-2.829 l 4.532,-26.244 c 0.177,-1.215 1.218,-2.115 2.446,-2.115 l 32.467,0.355 c 1.546,0.017 3.048,-0.517 4.236,-1.505 z"
             style="fill:#f95858;fill-opacity:1;fill-rule:nonzero;stroke:none"
             id="path334" /></g><g
           id="g336"
           transform="translate(144.5581,345.5596)"><path
             d="m 0,0 h -28.795 c -0.496,0 -0.874,-0.444 -0.795,-0.934 l 0.136,-0.839 c 0.063,-0.39 0.4,-0.677 0.794,-0.677 H 0.136 c 0.496,0 0.874,0.445 0.794,0.934 l -0.136,0.84 C 0.731,-0.287 0.395,0 0,0"
             style="fill:#ffffff;fill-opacity:1;fill-rule:nonzero;stroke:none"
             id="path338" /></g><g
           id="g340"
           transform="translate(145.5254,337.916)"><path
             d="m 0,0 h -28.795 c -0.496,0 -0.874,-0.444 -0.795,-0.934 l 0.136,-0.839 c 0.063,-0.39 0.4,-0.677 0.795,-0.677 H 0.136 c 0.496,0 0.874,0.445 0.795,0.934 l -0.137,0.84 C 0.731,-0.287 0.395,0 0,0"
             style="fill:#ffffff;fill-opacity:1;fill-rule:nonzero;stroke:none"
             id="path342" /></g><g
           id="g344"
           transform="translate(379.9824,255.5498)"><path
             d="m 0,0 -0.155,-5.781 -3.47,-134.243 h -13.87 L -29.782,-25 c 0,0 -0.011,-0.011 -0.011,-0.033 l -15.619,-38.781 10.659,-76.208 -5.127,-0.044 -8.477,-0.079 c 0,0 -25.361,76.053 -24.851,80.98 0.521,4.916 19.558,58.665 19.558,58.665 z"
             style="fill:#1d54b5;fill-opacity:1;fill-rule:nonzero;stroke:none"
             id="path346" /></g><g
           id="g348"
           transform="translate(381.3281,338.6401)"><path
             d="M 0,0 -26.057,3.582 -26.667,3.67 -39.128,3.615 -39.239,3.593 -54.121,-0.131 V -83.825 H 0 Z"
             style="fill:#f95858;fill-opacity:1;fill-rule:nonzero;stroke:none"
             id="path350" /></g><g
           id="g352"
           transform="translate(425.917,322.3794)"><path
             d="m 0,0 c 0,0 1.895,11.832 3.27,11.889 1.375,0.057 1.225,-5.183 1.225,-5.183 0,0 8.265,8.792 11.568,6.633 C 19.366,11.182 8.14,-2.764 8.14,-2.764 Z"
             style="fill:#ffb19e;fill-opacity:1;fill-rule:nonzero;stroke:none"
             id="path354" /></g><g
           id="g356"
           transform="translate(342.2217,342.1885)"><path
             d="m 0,0 1.411,-92.42 h -19.486 l -1.377,25.295 -25.855,0.421 c -2.687,-0.087 -4.677,2.471 -3.935,5.055 l 12.881,44.783 c 1.498,5.237 5.67,9.265 10.951,10.586 l 25.277,6.324 z"
             style="fill:#4286e8;fill-opacity:1;fill-rule:nonzero;stroke:none"
             id="path358" /></g><g
           id="g360"
           transform="translate(434.8994,319.2402)"><path
             d="m 0,0 -25.068,-51.496 c -1.587,-2.885 -5.703,-2.951 -7.402,-0.144 l -19.618,32.512 -0.976,-50.344 H -73.88 l -5.826,92.431 0.078,0.022 26.476,-3.639 c 4.993,-0.755 9.298,-3.928 11.506,-8.477 l 13.393,-27.619 c 0.333,-0.677 1.254,-0.788 1.742,-0.21 L -9.476,3.387 Z"
             style="fill:#4286e8;fill-opacity:1;fill-rule:nonzero;stroke:none"
             id="path362" /></g><g
           id="g364"
           transform="translate(322.6475,274.8184)"><path
             d="M 0,0 H 25.403 L 25.648,13.009 0.245,13.377 Z"
             style="fill:#4286e8;fill-opacity:1;fill-rule:nonzero;stroke:none"
             id="path366" /></g><g
           id="g368"
           transform="translate(348.21,278.4111)"><path
             d="m 0,0 c 7.165,0.262 14.829,2.825 18.416,7.039 0.796,0.936 0.118,2.377 -1.11,2.377 H -0.111 Z"
             style="fill:#ffb19e;fill-opacity:1;fill-rule:nonzero;stroke:none"
             id="path370" /></g><g
           id="g372"><g
             id="g374" /><g
             id="g386"><g
               clip-path="url(#clipPath378)"
               opacity="0.410004"
               id="g384"><g
                 transform="translate(338.3018,274.2861)"
                 id="g382"><path
                   d="m 0,0 0.024,0.417 -15.543,0.114 1.364,-25.049 4.636,20.755 z"
                   style="fill:#13448c;fill-opacity:1;fill-rule:nonzero;stroke:none"
                   id="path380" /></g></g></g></g><g
           id="g388"><g
             id="g390" /><g
             id="g402"><g
               clip-path="url(#clipPath394)"
               opacity="0.320007"
               id="g400"><g
                 transform="translate(379.8271,249.7686)"
                 id="g398"><path
                   d="M 0,0 -3.47,-134.243 H -4.446 L -13.76,0 Z"
                   style="fill:#0e367c;fill-opacity:1;fill-rule:nonzero;stroke:none"
                   id="path396" /></g></g></g></g><g
           id="g404"><g
             id="g406" /><g
             id="g418"><g
               clip-path="url(#clipPath410)"
               opacity="0.410004"
               id="g416"><g
                 transform="translate(348.2656,287.9189)"
                 id="g414"><path
                   d="m 0,0 c 0,0 -34.462,-2.496 -34.239,-1.841 l 5.981,20.614 0.089,-0.311 0.588,-14.38 C -27.504,2.129 -1.798,0.51 0,0"
                   style="fill:#13448c;fill-opacity:1;fill-rule:nonzero;stroke:none"
                   id="path412" /></g></g></g></g><g
           id="g420"><g
             id="g422" /><g
             id="g434"><g
               clip-path="url(#clipPath426)"
               opacity="0.410004"
               id="g432"><g
                 transform="translate(409.8311,267.7446)"
                 id="g430"><path
                   d="m 0,0 25.068,51.496 -0.116,0.038 C 22.292,51.547 -1.033,2.778 -3.487,1.551 -6.281,0.154 -27.02,32.367 -27.02,32.367 L -7.401,-0.145 C -5.703,-2.952 -1.587,-2.885 0,0"
                   style="fill:#13448c;fill-opacity:1;fill-rule:nonzero;stroke:none"
                   id="path428" /></g></g></g></g><g
           id="g436"
           transform="translate(333.2002,115.5498)"><path
             d="m 0,0 c -2.991,-6.126 -17.207,-9.222 -17.207,-9.222 0,0 -1.025,-1.807 0.598,-4.094 1.623,-2.287 16.582,-0.886 18.458,-0.47 1.875,0.417 3.165,1.937 3.165,1.937 0,0 1.258,-1.367 1.962,-1.705 0.703,-0.338 4.522,0.427 4.522,0.427 0.899,2.437 0.003,11.741 -0.255,13.226 z"
             style="fill:#13448c;fill-opacity:1;fill-rule:nonzero;stroke:none"
             id="path438" /></g><g
           id="g440"
           transform="translate(375.0566,115.5498)"><path
             d="m 0,0 c 2.991,-6.126 17.207,-9.222 17.207,-9.222 0,0 1.025,-1.807 -0.598,-4.094 -1.623,-2.287 -16.582,-0.886 -18.457,-0.47 -1.876,0.417 -3.166,1.937 -3.166,1.937 0,0 -1.258,-1.367 -1.962,-1.705 -0.703,-0.338 -4.522,0.427 -4.522,0.427 -0.899,2.437 -0.003,11.741 0.255,13.226 z"
             style="fill:#13448c;fill-opacity:1;fill-rule:nonzero;stroke:none"
             id="path442" /></g><g
           id="g444"><g
             id="g446" /><g
             id="g458"><g
               clip-path="url(#clipPath450)"
               opacity="0.320007"
               id="g456"><g
                 transform="translate(334.5703,191.7354)"
                 id="g454"><path
                   d="M 0,0 10.659,-76.208 5.532,-76.252 C 2.37,-59.841 -8.688,-4.971 -8.277,-1.531 -7.801,2.574 14.92,37.616 15.619,38.781 Z"
                   style="fill:#0e367c;fill-opacity:1;fill-rule:nonzero;stroke:none"
                   id="path452" /></g></g></g></g><g
           id="g460"
           transform="translate(355.2158,342.1416)"><path
             d="m 0,0 c -1.889,-1.508 -6.454,-4.723 -6.454,-4.723 0,0 -4.645,3.183 -6.565,4.71 l -0.015,11.031 H 0 Z"
             style="fill:#ffb19e;fill-opacity:1;fill-rule:evenodd;stroke:none"
             id="path462" /></g><g
           id="g464"
           transform="translate(355.2207,353.1592)"><path
             d="m 0,0 v -4.614 c -3.774,-3.13 -9.248,-3.14 -13.034,-0.053 V 0 Z"
             style="fill:#ffb19e;fill-opacity:1;fill-rule:evenodd;stroke:none"
             id="path466" /></g><g
           id="g468"
           transform="translate(334.2334,360.2891)"><path
             d="m 0,0 h 29.286 l 0.451,8.153 c 6.475,2.739 1.619,18.177 1.619,18.177 0.373,-3.735 -9.711,-3.859 -13.695,-3.237 -3.984,0.623 -6.723,-0.996 -6.723,-0.996 0,0 -12.699,2.739 -11.953,-15.064 C -0.901,4.342 -0.543,2.072 0,0"
             style="fill:#13448c;fill-opacity:1;fill-rule:evenodd;stroke:none"
             id="path470" /></g><g
           id="g472"
           transform="translate(360.4219,368.4546)"><path
             d="m 0,0 v -7.348 c 0,-3.144 -1.292,-6.146 -3.575,-8.3 -0.374,-0.331 -0.747,-0.689 -1.135,-1.048 -3.949,-3.72 -10.124,-3.72 -14.073,0 l -1.12,1.048 c -2.291,2.144 -3.591,5.14 -3.591,8.277 v 5.607 c 0,0 3.394,2.274 8.061,7.839 0,0 5.162,-4.954 15.433,-6.075"
             style="fill:#ffb19e;fill-opacity:1;fill-rule:evenodd;stroke:none"
             id="path474" /></g><g
           id="g476"
           transform="translate(355.2207,351.3306)"><path
             d="m 0,0 v -2.785 c -3.774,-3.13 -9.248,-3.141 -13.034,-0.054 v 2.796 C -9.248,-3.14 -3.774,-3.129 0,0"
             style="fill:#f48f7a;fill-opacity:1;fill-rule:evenodd;stroke:none"
             id="path478" /></g><g
           id="g480"
           transform="translate(339.8447,359.4272)"><path
             d="M 0,0 C 2.275,3.644 -1.562,7.481 -5.207,5.208 -5.491,5.03 -5.738,4.783 -5.916,4.499 -8.198,0.853 -4.354,-2.991 -0.708,-0.709 -0.424,-0.531 -0.177,-0.284 0,0"
             style="fill:#ffb19e;fill-opacity:1;fill-rule:evenodd;stroke:none"
             id="path482" /></g><g
           id="g484"
           transform="translate(363.2402,359.4258)"><path
             d="m 0,0 c 2.224,3.558 -1.384,7.303 -4.948,5.359 -0.47,-0.257 -0.864,-0.65 -1.12,-1.121 -1.945,-3.563 1.8,-7.171 5.359,-4.947 C -0.425,-0.531 -0.178,-0.284 0,0"
             style="fill:#ffb19e;fill-opacity:1;fill-rule:evenodd;stroke:none"
             id="path486" /></g><g
           id="g488"
           transform="translate(363.1289,367.1831)"><path
             d="m 0,0 h -1.113 v 3.855 c 0,6.403 -5.84,11.613 -13.019,11.613 h -0.549 c -7.178,0 -13.019,-5.21 -13.019,-11.613 V 0 h -1.113 v 3.855 c 0,6.988 6.339,12.672 14.132,12.672 h 0.549 C -6.34,16.527 0,10.843 0,3.855 Z"
             style="fill:#a31919;fill-opacity:1;fill-rule:nonzero;stroke:none"
             id="path490" /></g><g
           id="g492"
           transform="translate(362.2021,369.2388)"><path
             d="m 0,0 v 0 c -1.727,0 -3.14,-1.413 -3.14,-3.14 v -5.598 c 0,-1.727 1.413,-3.14 3.14,-3.14 1.728,0 3.141,1.413 3.141,3.14 V -3.14 C 3.141,-1.413 1.728,0 0,0"
             style="fill:#f95858;fill-opacity:1;fill-rule:nonzero;stroke:none"
             id="path494" /></g><g
           id="g496"
           transform="translate(362.2021,369.2388)"><path
             d="M 0,0 C -0.33,0 -0.643,-0.066 -0.941,-0.161 0.326,-0.565 1.257,-1.743 1.257,-3.14 v -5.598 c 0,-1.397 -0.931,-2.575 -2.198,-2.979 0.298,-0.096 0.611,-0.161 0.941,-0.161 1.728,0 3.141,1.413 3.141,3.14 V -3.14 C 3.141,-1.413 1.728,0 0,0"
             style="fill:#cc3241;fill-opacity:1;fill-rule:nonzero;stroke:none"
             id="path498" /></g><g
           id="g500"
           transform="translate(335.2412,369.2388)"><path
             d="m 0,0 v 0 c -1.728,0 -3.141,-1.413 -3.141,-3.14 v -5.598 c 0,-1.727 1.413,-3.14 3.141,-3.14 1.727,0 3.14,1.413 3.14,3.14 V -3.14 C 3.14,-1.413 1.727,0 0,0"
             style="fill:#f95858;fill-opacity:1;fill-rule:nonzero;stroke:none"
             id="path502" /></g><g
           id="g504"
           transform="translate(335.2412,369.2388)"><path
             d="M 0,0 C -0.33,0 -0.643,-0.066 -0.941,-0.161 0.326,-0.565 1.257,-1.743 1.257,-3.14 v -5.598 c 0,-1.397 -0.931,-2.575 -2.198,-2.979 0.298,-0.096 0.611,-0.161 0.941,-0.161 1.727,0 3.14,1.413 3.14,3.14 V -3.14 C 3.14,-1.413 1.727,0 0,0"
             style="fill:#cc3241;fill-opacity:1;fill-rule:nonzero;stroke:none"
             id="path506" /></g><g
           id="g508"
           transform="translate(353.7207,353.854)"><path
             d="m 0,0 -0.039,0.625 c 3.58,0.226 6.655,4.681 6.686,4.726 L 7.164,4.999 C 7.032,4.804 3.883,0.246 0,0"
             style="fill:#ff4751;fill-opacity:1;fill-rule:nonzero;stroke:none"
             id="path510" /></g><g
           id="g512"
           transform="translate(354.4141,354.1323)"><path
             d="M 0,0 C -0.022,0.586 -0.861,0.996 -1.875,0.916 -2.889,0.836 -3.692,0.296 -3.671,-0.29 -3.649,-0.875 -2.81,-1.285 -1.796,-1.205 -0.783,-1.125 0.021,-0.585 0,0"
             style="fill:#ff4751;fill-opacity:1;fill-rule:nonzero;stroke:none"
             id="path514" /></g><g
           id="g516"
           transform="translate(369.2842,326.0156)"><path
             d="m 0,0 h -45.489 c -2.475,0 -4.412,-2.141 -4.307,-4.739 l 1.193,-29.279 c 0.096,-2.357 2.083,-4.272 4.416,-4.272 h 42.884 c 2.334,0 4.321,1.915 4.417,4.272 L 4.307,-4.739 C 4.413,-2.141 2.475,0 0,0"
             style="fill:#13448c;fill-opacity:1;fill-rule:nonzero;stroke:none"
             id="path518" /></g><g
           id="g520"
           transform="translate(369.2842,326.0156)"><path
             d="m 0,0 h -45.489 c -1.246,0 -2.355,-0.544 -3.136,-1.415 0.374,0.11 0.762,0.188 1.173,0.188 h 45.488 c 2.476,0 4.413,-2.141 4.307,-4.74 L 1.15,-35.246 c -0.045,-1.093 -0.507,-2.082 -1.212,-2.838 1.754,0.536 3.097,2.145 3.176,4.065 l 1.193,29.28 C 4.413,-2.141 2.475,0 0,0"
             style="fill:#1d54b5;fill-opacity:1;fill-rule:nonzero;stroke:none"
             id="path522" /></g><g
           id="g524"
           transform="translate(351.3643,306.1123)"><path
             d="m 0,0 c 0,2.847 -2.308,5.155 -5.154,5.155 -2.847,0 -5.155,-2.308 -5.155,-5.155 0,-2.846 2.308,-5.154 5.155,-5.154 C -2.308,-5.154 0,-2.846 0,0"
             style="fill:#4286e8;fill-opacity:1;fill-rule:nonzero;stroke:none"
             id="path526" /></g></g></g><g
       id="g528"><g
         id="g530"
         clip-path="url(#clipPath534)"><g
           id="g536"
           transform="translate(260.1035,32.2842)"><path
             d="m 0,0 c -0.432,-0.442 -0.803,-0.931 -1.108,-1.453 l -0.465,0.241 c -0.067,0.298 -0.349,0.503 -0.658,0.467 -0.332,-0.039 -0.569,-0.339 -0.53,-0.67 0.039,-0.331 0.339,-0.568 0.67,-0.529 0.066,0.007 0.127,0.026 0.184,0.052 l 0.451,-0.234 C -1.707,-2.68 -1.889,-3.265 -1.995,-3.87 l 0.746,-0.131 c 0.23,1.306 0.85,2.506 1.792,3.472 z"
             style="fill:#1d262d;fill-opacity:1;fill-rule:nonzero;stroke:none"
             id="path538" /></g><g
           id="g540"
           transform="translate(265.5918,34.5869)"><path
             d="m 0,0 c -0.171,0 -0.341,-0.007 -0.51,-0.018 l -0.073,0.626 c 0.187,0.15 0.296,0.39 0.266,0.645 C -0.364,1.646 -0.72,1.928 -1.113,1.882 -1.506,1.835 -1.787,1.479 -1.741,1.086 -1.711,0.832 -1.552,0.625 -1.336,0.522 l 0.073,-0.624 c -0.714,-0.116 -1.403,-0.332 -2.059,-0.646 l 0.327,-0.684 c 0.933,0.448 1.941,0.673 2.995,0.673 0.496,0 0.993,-0.053 1.475,-0.157 l 0.161,0.741 C 1.101,-0.06 0.551,0 0,0"
             style="fill:#1d262d;fill-opacity:1;fill-rule:nonzero;stroke:none"
             id="path542" /></g><g
           id="g544"
           transform="translate(272.1943,32.0391)"><path
             d="M 0,0 C 0.331,0.041 0.566,0.342 0.525,0.673 0.484,1.004 0.184,1.238 -0.146,1.198 -0.456,1.16 -0.683,0.895 -0.677,0.59 L -1.093,0.227 c -0.418,0.429 -0.889,0.812 -1.408,1.138 l -0.403,-0.64 c 1.133,-0.715 2.02,-1.727 2.563,-2.926 l 0.691,0.312 c -0.251,0.555 -0.568,1.073 -0.943,1.545 L -0.19,0.008 C -0.13,-0.005 -0.065,-0.008 0,0"
             style="fill:#1d262d;fill-opacity:1;fill-rule:nonzero;stroke:none"
             id="path546" /></g><g
           id="g548"
           transform="translate(265.0439,24.3779)"><path
             d="m 0,0 c -0.386,-0.023 -0.774,-0.034 -1.157,-0.034 -0.88,0 -1.733,0.06 -2.479,0.179 -0.389,0.062 -0.845,0.155 -1.269,0.292 1.046,-1.861 3.069,-3.125 5.387,-3.125 2.856,0 5.263,1.916 5.951,4.503 C 5.751,1.366 4.927,0.99 3.974,0.692 2.795,0.325 1.42,0.086 0,0"
             style="fill:#1d262d;fill-opacity:1;fill-rule:nonzero;stroke:none"
             id="path550" /></g><g
           id="g552"
           transform="translate(268.1699,27.4639)"><path
             d="M 0,0 C -0.75,0 -1.36,0.61 -1.36,1.36 -1.36,2.11 -0.75,2.721 0,2.721 0.75,2.721 1.36,2.11 1.36,1.36 1.36,0.61 0.75,0 0,0 m -4.737,-0.908 c -1.021,0 -1.85,0.83 -1.85,1.849 0,1.021 0.829,1.85 1.85,1.85 1.019,0 1.849,-0.829 1.849,-1.85 0,-1.019 -0.83,-1.849 -1.849,-1.849 m 2.159,6.514 c -3.353,0 -6.08,-2.666 -6.08,-5.943 0,-0.426 0.047,-0.849 0.137,-1.262 0.674,-0.482 2.707,-0.889 5.348,-0.73 2.879,0.173 5.297,0.957 6.672,2.158 C 3.493,0.024 3.479,0.22 3.454,0.411 3.073,3.373 0.48,5.606 -2.578,5.606"
             style="fill:#1d262d;fill-opacity:1;fill-rule:nonzero;stroke:none"
             id="path554" /></g><g
           id="g556"
           transform="translate(281.5947,31.2031)"><path
             d="M 0,0 C -0.294,0.116 -0.805,0.309 -1.382,0.237 -1.933,0.169 -2.226,-0.103 -2.226,-0.77 v -0.865 h 2.228 v -1.718 h -2.228 v -5.454 h -1.931 v 5.454 h -1.34 v 1.718 h 1.34 v 0.888 c 0,1.681 0.895,2.783 2.568,2.783 0.643,0 1.157,-0.122 1.59,-0.308 z"
             style="fill:#1d262d;fill-opacity:1;fill-rule:nonzero;stroke:none"
             id="path558" /></g><g
           id="g560"
           transform="translate(286.2979,27.8711)"><path
             d="m 0,0 c -0.177,0.03 -0.357,0.047 -0.526,0.047 -0.896,0 -1.51,-0.548 -1.51,-1.614 v -3.908 h -1.932 v 7.172 h 1.872 V 0.912 c 0.452,0.674 1.141,0.978 2.022,0.978 0.414,0 0.847,-0.128 1.094,-0.337 z"
             style="fill:#1d262d;fill-opacity:1;fill-rule:nonzero;stroke:none"
             id="path562" /></g><g
           id="g564"
           transform="translate(288.8506,26.6592)"><path
             d="M 0,0 H 3.175 C 2.998,0.918 2.442,1.436 1.613,1.436 0.703,1.436 0.171,0.889 0,0 m 5.114,-0.666 c 0,-0.222 -0.014,-0.488 -0.037,-0.651 h -5.084 c 0.207,-1.037 0.933,-1.488 1.843,-1.488 0.621,0 1.295,0.251 1.812,0.688 L 4.781,-3.36 c -0.814,-0.747 -1.85,-1.088 -3.056,-1.088 -2.199,0 -3.723,1.495 -3.723,3.753 0,2.257 1.48,3.797 3.626,3.797 2.065,0 3.479,-1.533 3.486,-3.768"
             style="fill:#1d262d;fill-opacity:1;fill-rule:nonzero;stroke:none"
             id="path566" /></g><g
           id="g568"
           transform="translate(296.5039,26.6592)"><path
             d="M 0,0 H 3.175 C 2.998,0.918 2.442,1.436 1.613,1.436 0.703,1.436 0.17,0.889 0,0 m 5.114,-0.666 c 0,-0.222 -0.014,-0.488 -0.037,-0.651 h -5.084 c 0.207,-1.037 0.932,-1.488 1.843,-1.488 0.621,0 1.295,0.251 1.813,0.688 L 4.781,-3.36 c -0.814,-0.747 -1.85,-1.088 -3.056,-1.088 -2.199,0 -3.723,1.495 -3.723,3.753 0,2.257 1.48,3.797 3.626,3.797 2.065,0 3.479,-1.533 3.486,-3.768"
             style="fill:#1d262d;fill-opacity:1;fill-rule:nonzero;stroke:none"
             id="path570" /></g><g
           id="g572"
           transform="translate(304.2871,25.9854)"><path
             d="m 0,0 c 0,-1.132 0.747,-1.976 1.843,-1.976 1.139,0 1.85,0.881 1.85,1.976 0,1.096 -0.711,1.977 -1.85,1.977 C 0.747,1.977 0,1.133 0,0 m 5.677,0 c 0,-2.153 -1.495,-3.774 -3.471,-3.774 -0.963,0 -1.644,0.378 -2.109,0.932 V -6.55 H -1.828 V 3.583 H 0.06 V 2.791 C 0.525,3.375 1.214,3.775 2.198,3.775 4.182,3.775 5.677,2.154 5.677,0"
             style="fill:#1d262d;fill-opacity:1;fill-rule:nonzero;stroke:none"
             id="path574" /></g><path
           d="m 312.809,22.396 h -1.932 v 7.172 h 1.932 z m 0.258,9.518 c 0,-0.695 -0.54,-1.228 -1.236,-1.228 -0.695,0 -1.228,0.533 -1.228,1.228 0,0.696 0.533,1.243 1.228,1.243 0.696,0 1.236,-0.547 1.236,-1.243"
           style="fill:#1d262d;fill-opacity:1;fill-rule:nonzero;stroke:none"
           id="path576" /><g
           id="g578"
           transform="translate(316.0322,27.0146)"><path
             d="M 0,0 2.701,2.554 H 5.07 L 1.591,-0.821 5.092,-4.618 H 2.716 L 0,-1.717 V -4.618 H -1.932 V 6.039 H 0 Z"
             style="fill:#1d262d;fill-opacity:1;fill-rule:nonzero;stroke:none"
             id="path580" /></g><g
           id="g582"
           transform="translate(184.4126,24.3799)"><path
             d="m 0,0 v 3.208 c -0.396,0.615 -1.245,1.143 -2.124,1.143 -1.421,0 -2.271,-1.172 -2.271,-2.74 0,-1.567 0.85,-2.724 2.271,-2.724 0.879,0 1.728,0.498 2.124,1.113 m 0,-1.919 v 1.055 c -0.527,-0.718 -1.392,-1.231 -2.388,-1.231 -1.845,0 -3.149,1.407 -3.149,3.706 0,2.256 1.289,3.721 3.149,3.721 0.952,0 1.817,-0.469 2.388,-1.245 v 3.765 h 1.099 v -9.771 z"
             style="fill:#1d262d;fill-opacity:1;fill-rule:nonzero;stroke:none"
             id="path584" /></g><g
           id="g586"
           transform="translate(190.4033,28.8037)"><path
             d="M 0,0 C -1.509,0 -2.256,-1.274 -2.314,-2.358 H 2.329 C 2.314,-1.304 1.611,0 0,0 m -3.471,-2.798 c 0,2.051 1.464,3.706 3.486,3.706 2.138,0 3.398,-1.67 3.398,-3.794 v -0.278 h -5.727 c 0.087,-1.333 1.025,-2.446 2.548,-2.446 0.806,0 1.626,0.322 2.183,0.893 L 2.944,-5.435 C 2.241,-6.138 1.289,-6.519 0.132,-6.519 c -2.095,0 -3.603,1.509 -3.603,3.721"
             style="fill:#1d262d;fill-opacity:1;fill-rule:nonzero;stroke:none"
             id="path588" /></g><g
           id="g590"
           transform="translate(194.6069,23.3984)"><path
             d="M 0,0 0.571,0.791 C 1.04,0.249 1.934,-0.22 2.9,-0.22 c 1.084,0 1.67,0.513 1.67,1.216 0,1.714 -4.38,0.659 -4.38,3.281 0,1.099 0.953,2.036 2.637,2.036 1.201,0 2.051,-0.454 2.622,-1.025 L 4.936,4.526 C 4.512,5.039 3.735,5.42 2.827,5.42 1.86,5.42 1.26,4.937 1.26,4.307 1.26,2.754 5.639,3.779 5.639,1.025 5.639,-0.161 4.687,-1.113 2.856,-1.113 1.699,-1.113 0.718,-0.762 0,0"
             style="fill:#1d262d;fill-opacity:1;fill-rule:nonzero;stroke:none"
             id="path592" /></g><path
           d="m 201.667,29.536 h 1.099 v -7.075 h -1.099 z m -0.19,1.743 c 0,0.41 0.337,0.747 0.732,0.747 0.411,0 0.747,-0.337 0.747,-0.747 0,-0.41 -0.336,-0.732 -0.747,-0.732 -0.395,0 -0.732,0.322 -0.732,0.732"
           style="fill:#1d262d;fill-opacity:1;fill-rule:nonzero;stroke:none"
           id="path594" /><g
           id="g596"
           transform="translate(209.7085,24.4971)"><path
             d="m 0,0 v 3.091 c -0.381,0.615 -1.23,1.142 -2.109,1.142 -1.421,0 -2.27,-1.128 -2.27,-2.695 0,-1.553 0.849,-2.695 2.27,-2.695 0.879,0 1.728,0.542 2.109,1.157 m -5.126,-3.853 0.556,0.821 c 0.586,-0.703 1.289,-0.967 2.3,-0.967 1.172,0 2.27,0.571 2.27,2.124 v 1.011 c -0.512,-0.718 -1.376,-1.26 -2.373,-1.26 -1.845,0 -3.149,1.377 -3.149,3.662 0,2.271 1.289,3.677 3.149,3.677 0.952,0 1.802,-0.469 2.373,-1.245 v 1.069 h 1.099 v -6.87 c 0,-2.344 -1.641,-3.076 -3.369,-3.076 -1.201,0 -2.022,0.234 -2.856,1.054"
             style="fill:#1d262d;fill-opacity:1;fill-rule:nonzero;stroke:none"
             id="path598" /></g><g
           id="g600"
           transform="translate(217.4131,22.4609)"><path
             d="M 0,0 V 4.629 C 0,5.874 -0.629,6.27 -1.582,6.27 -2.446,6.27 -3.267,5.742 -3.676,5.171 V 0 h -1.099 v 7.075 h 1.099 V 6.05 c 0.498,0.586 1.464,1.201 2.519,1.201 1.479,0 2.256,-0.747 2.256,-2.285 L 1.099,0 Z"
             style="fill:#1d262d;fill-opacity:1;fill-rule:nonzero;stroke:none"
             id="path602" /></g><g
           id="g604"
           transform="translate(223.4043,28.8037)"><path
             d="M 0,0 C -1.509,0 -2.256,-1.274 -2.314,-2.358 H 2.329 C 2.314,-1.304 1.611,0 0,0 m -3.472,-2.798 c 0,2.051 1.465,3.706 3.487,3.706 2.138,0 3.398,-1.67 3.398,-3.794 v -0.278 h -5.727 c 0.087,-1.333 1.025,-2.446 2.548,-2.446 0.806,0 1.626,0.322 2.183,0.893 L 2.944,-5.435 C 2.241,-6.138 1.289,-6.519 0.132,-6.519 c -2.095,0 -3.604,1.509 -3.604,3.721"
             style="fill:#1d262d;fill-opacity:1;fill-rule:nonzero;stroke:none"
             id="path606" /></g><g
           id="g608"
           transform="translate(233.3501,24.3799)"><path
             d="m 0,0 v 3.208 c -0.396,0.615 -1.245,1.143 -2.124,1.143 -1.421,0 -2.271,-1.172 -2.271,-2.74 0,-1.567 0.85,-2.724 2.271,-2.724 0.879,0 1.728,0.498 2.124,1.113 m 0,-1.919 v 1.055 c -0.527,-0.718 -1.392,-1.231 -2.388,-1.231 -1.845,0 -3.149,1.407 -3.149,3.706 0,2.256 1.289,3.721 3.149,3.721 0.952,0 1.817,-0.469 2.388,-1.245 v 3.765 h 1.099 v -9.771 z"
             style="fill:#1d262d;fill-opacity:1;fill-rule:nonzero;stroke:none"
             id="path610" /></g><g
           id="g612"
           transform="translate(242.8999,23.2666)"><path
             d="M 0,0 C 1.436,0 2.285,1.157 2.285,2.725 2.285,4.292 1.436,5.464 0,5.464 -0.864,5.464 -1.729,4.937 -2.109,4.321 V 1.113 C -1.729,0.498 -0.864,0 0,0 m -3.208,-0.806 v 9.771 h 1.099 V 5.2 c 0.571,0.777 1.421,1.245 2.387,1.245 1.846,0 3.15,-1.465 3.15,-3.72 0,-2.3 -1.304,-3.706 -3.15,-3.706 -0.996,0 -1.86,0.512 -2.387,1.23 v -1.055 z"
             style="fill:#1d262d;fill-opacity:1;fill-rule:nonzero;stroke:none"
             id="path614" /></g><g
           id="g616"
           transform="translate(247.5283,20.6885)"><path
             d="m 0,0 c 0.161,-0.073 0.425,-0.117 0.601,-0.117 0.483,0 0.805,0.161 1.055,0.747 l 0.469,1.069 -2.96,7.149 H 0.352 L 2.71,3.047 5.054,8.848 H 6.255 L 2.71,0.337 C 2.285,-0.688 1.567,-1.084 0.63,-1.099 c -0.234,0 -0.601,0.044 -0.805,0.103 z"
             style="fill:#1d262d;fill-opacity:1;fill-rule:nonzero;stroke:none"
             id="path618" /></g></g></g></g></svg>
