<svg width="1440" height="1024" viewBox="0 0 1440 1024" fill="none" xmlns="http://www.w3.org/2000/svg">
<path d="M-129.304 1469.88C107.021 1478.63 220.133 1698.83 396.773 1648.71C670.064 1571.18 833.144 1780.93 959.573 1804.67C1154.38 1841.26 1219.14 1557.4 1455.99 1587.01C1808.57 1631.07 1674.93 1840.6 2306.64 1748.52L1766.33 -156C1619.76 -22.5656 1497.16 -111.237 1350.54 22.1782C1203.92 155.594 1411.15 270.289 1264.35 403.788C1117.55 537.287 941.031 403.662 794.42 537.107C647.809 670.553 650.309 739.958 627.148 937.567C520.665 1158.81 434.319 1121.01 282.346 1118.45C90.256 1152.18 140.601 1291.56 -129.304 1469.88Z" fill="#F4F7C5"/>
</svg>
