<svg width="196" height="99" viewBox="0 0 196 99" fill="none" xmlns="http://www.w3.org/2000/svg">
<path d="M97.5727 39.0282V51.838C97.3767 57.4825 95.0251 61.8346 90.9098 64.6479C84.2437 68.9893 77.5808 73.1165 70.7219 77.4578C68.5663 78.9787 66.2243 77.4578 66.0155 74.6338V49.014C66.0155 42.7198 68.5663 37.9464 73.4655 34.901C79.9324 30.7774 86.3993 26.6503 92.6735 22.5267C94.2412 21.4556 96.005 21.8733 96.9848 23.3942C97.5727 24.2618 97.5727 25.1329 97.5727 26.0005V39.0282ZM79.9324 58.7857C79.9324 57.2648 79.5405 56.3972 78.5606 55.9616C77.5969 55.3119 76.7969 55.5296 76.0131 56.1794C74.9779 56.8809 74.1259 57.8711 73.5415 59.0516C72.9571 60.2322 72.6606 61.562 72.6816 62.9092C72.6816 63.9803 73.0735 64.8657 73.8574 65.2977C74.6413 65.9511 75.6211 65.7333 76.405 65.0799C78.5606 63.5626 79.7364 61.3919 79.9324 58.7857ZM91.3017 36.4219C91.3017 35.3508 91.1058 34.469 90.1259 33.8157C89.1461 33.1623 88.3622 33.3837 87.5751 34.0334C85.4195 35.5543 84.2437 37.9607 84.4397 40.7633C84.4192 41.23 84.5168 41.6938 84.7216 42.102C84.9263 42.5101 85.2299 42.8463 85.5979 43.0724C85.966 43.2984 86.3836 43.4053 86.8035 43.3808C87.2235 43.3564 87.6288 43.2015 87.9735 42.934C90.1259 41.4166 91.1058 39.2459 91.3017 36.4219Z" fill="#050404"/>
<path d="M64.8397 60.5208V73.5485C64.8397 74.416 64.8397 75.2872 64.2518 76.1548C63.272 77.6757 61.7042 77.8934 60.1365 77.0223C54.8453 73.5485 49.5542 70.2925 44.4558 67.0257C42.8881 65.9547 41.3203 65.0693 39.7526 63.9839C35.255 60.9457 32.8937 56.3865 32.8937 50.5243V25.3472C32.8937 22.5267 35.4413 20.5703 37.7929 22.309C44.4558 26.6503 51.122 30.7775 57.5889 35.1188C62.4881 38.1571 64.8397 42.934 64.8397 49.0141V60.5208ZM51.3179 43.7909C51.3799 45.1155 51.7348 46.4027 52.3512 47.5386C52.9676 48.6744 53.8265 49.6239 54.8518 50.3029C55.6356 50.9562 56.4195 50.9562 57.3993 50.3029C58.1832 49.6531 58.7711 48.782 58.5752 47.6967C58.5132 46.372 58.1582 45.0848 57.5419 43.9489C56.9255 42.8131 56.0666 41.8636 55.0413 41.1846C54.6783 40.867 54.2296 40.6943 53.7675 40.6943C53.3054 40.6943 52.8568 40.867 52.4937 41.1846C51.7098 42.0665 51.3179 42.7198 51.3179 43.7909ZM46.8203 55.2976C46.6243 52.4736 45.4485 50.2993 43.0937 48.782C41.526 47.7109 39.5599 48.9998 39.5599 51.1705C39.5556 52.512 39.8829 53.829 40.5061 54.978C41.1292 56.127 42.0243 57.0637 43.0937 57.6861C43.4582 58.0016 43.907 58.173 44.3691 58.173C44.8311 58.173 45.28 58.0016 45.6445 57.6861C46.6147 57.4826 47.0066 56.3972 46.8107 55.3119L46.8203 55.2976Z" fill="#050404"/>
<path d="M130.502 60.9564V73.7805C130.502 77.0366 127.951 78.5575 125.403 77.0366C118.936 72.6952 112.273 68.568 105.607 64.4445C100.708 61.4062 98.3566 56.6293 98.3566 50.5492V25.5828C98.3428 25.0735 98.4265 24.5668 98.6022 24.0961C98.7778 23.6255 99.0414 23.2016 99.3755 22.8527C99.7095 22.5037 100.106 22.2375 100.54 22.0718C100.974 21.906 101.434 21.8445 101.89 21.8912C102.404 21.9167 102.891 22.1489 103.262 22.5446C109.928 26.8859 116.787 31.0131 123.45 35.3544C128.156 38.3927 130.312 42.9518 130.518 49.0319L130.502 60.9564ZM105.215 37.5073C105.411 39.8958 106.587 42.0664 108.749 43.5766C109.533 44.2264 110.317 44.0086 111.297 43.5766C111.648 43.3096 111.938 42.9541 112.142 42.539C112.347 42.1239 112.46 41.6611 112.473 41.1882C112.277 38.3641 111.101 35.9757 108.939 34.6726C108.152 34.0228 107.368 34.0228 106.388 34.6726C105.408 35.3223 105.215 35.9864 105.215 37.5073ZM124.228 62.9093C124.032 60.5208 122.856 58.3501 120.896 56.8399C120.112 56.1902 119.132 55.9724 118.348 56.6257C117.369 57.2755 117.173 58.143 117.173 59.4462C117.369 62.2702 118.544 64.2231 120.707 65.744C121.49 66.3938 122.274 66.3938 123.254 65.744C123.836 65.2977 124.228 64.4302 124.228 62.9093Z" fill="#050404"/>
<path d="M65.4276 36.2041C63.0273 36.2281 60.663 35.5549 58.5687 34.2512C51.9058 29.9063 45.2397 25.7827 38.7727 21.4414C36.4211 19.9205 36.4211 16.6644 38.7727 15.1435C45.4389 10.8022 52.1018 6.45721 58.9606 2.33363C63.6639 -0.490401 68.3703 -0.490401 72.8776 2.33363C79.5405 6.45721 86.0074 10.8022 92.6735 14.9257C95.0252 16.4466 95.0252 19.7027 92.6735 21.2236C86.0074 25.5828 79.1485 29.9063 72.2993 34.2512C70.2012 35.5572 67.8322 36.2304 65.4276 36.2041ZM53.2776 21.6556C54.578 21.6357 55.8551 21.2683 57.001 20.5845C57.3588 20.3515 57.6556 20.0185 57.8619 19.6186C58.0681 19.2188 58.1766 18.7658 58.1766 18.3049C58.1766 17.844 58.0681 17.3911 57.8619 16.9912C57.6556 16.5913 57.3588 16.2583 57.001 16.0253C55.9103 15.2812 54.6554 14.8873 53.3755 14.8873C52.0957 14.8873 50.8409 15.2812 49.7502 16.0253C49.3923 16.2583 49.0955 16.5913 48.8893 16.9912C48.683 17.3911 48.5745 17.844 48.5745 18.3049C48.5745 18.7658 48.683 19.2188 48.8893 19.6186C49.0955 20.0185 49.3923 20.3515 49.7502 20.5845C50.8356 21.2399 52.043 21.6065 53.2776 21.6556ZM76.209 21.4378C77.9727 21.4378 79.3445 21.0022 80.3243 20.3667C80.6822 20.1337 80.979 19.8008 81.1852 19.4009C81.3915 19.001 81.5 18.5481 81.5 18.0871C81.5 17.6262 81.3915 17.1733 81.1852 16.7734C80.979 16.3735 80.6822 16.0406 80.3243 15.8076C77.9685 14.2867 75.6126 14.2867 73.2567 15.8076C71.4929 16.8786 71.4929 19.2814 73.2567 20.3667C74.1059 21.0798 75.1448 21.4579 76.209 21.4414V21.4378Z" fill="#050404"/>
<path d="M131.09 36.2036C128.685 36.2556 126.313 35.5806 124.227 34.2507C117.565 29.9058 111.098 25.7822 104.425 21.4409C102.073 19.9199 102.073 16.6639 104.425 15.143C111.091 10.8016 117.95 6.45671 124.809 2.11535C129.307 -0.705115 134.023 -0.705115 138.726 2.11535C145.389 6.2425 151.856 10.5838 158.522 14.7074C160.873 16.2283 160.873 19.4844 158.522 21.0053C151.856 25.3466 144.997 29.4738 138.334 33.8152C136.175 35.3661 133.66 36.1951 131.09 36.2036ZM119.132 14.9252C117.761 14.9252 116.781 15.143 115.598 15.9963C114.635 16.6496 114.227 17.2994 114.227 18.6025C114.231 19.1036 114.361 19.5933 114.604 20.0156C114.847 20.438 115.191 20.776 115.598 20.991C117.95 22.2941 120.302 22.2941 122.457 20.7732C124.221 19.7022 124.025 17.2994 122.457 16.2141C121.512 15.3787 120.34 14.9243 119.132 14.9252ZM142.456 14.9252C141.23 14.8751 140.013 15.1751 138.922 15.7964C137.958 16.4461 137.55 17.0959 137.55 18.1813C137.551 18.6857 137.682 19.1793 137.926 19.6047C138.17 20.03 138.517 20.3696 138.928 20.584C141.28 21.8871 143.631 21.8871 145.787 20.3698C146.145 20.1368 146.442 19.8038 146.648 19.4039C146.854 19.004 146.963 18.5511 146.963 18.0902C146.963 17.6293 146.854 17.1764 146.648 16.7765C146.442 16.3766 146.145 16.0436 145.787 15.8106C144.769 15.1859 143.618 14.8799 142.456 14.9252Z" fill="#050404"/>
<path d="M131.481 60.9564V47.9287C131.677 42.2842 134.029 37.9321 138.34 35.1188C144.807 30.7774 151.47 26.6503 158.136 22.5267C160.684 21.0058 163.036 22.5267 163.036 25.5649V47.9287C163.036 50.0994 163.036 52.4878 162.644 54.6585C162.272 56.7706 161.481 58.764 160.328 60.4934C159.176 62.2227 157.69 63.6445 155.981 64.6551C149.315 68.9964 142.848 73.1236 136.185 77.465C133.833 78.9859 131.286 77.465 131.286 74.4231C131.481 69.864 131.481 65.5226 131.481 60.9635V60.9564ZM145.395 58.7857C145.395 57.7146 145.199 56.8292 144.219 56.1794C143.24 55.5296 142.456 55.7439 141.672 56.3972C139.516 57.9181 138.536 60.0888 138.536 62.9092C138.521 63.4432 138.641 63.9711 138.884 64.4322C139.127 64.8933 139.482 65.2688 139.908 65.5155C140.274 65.7479 140.694 65.8516 141.114 65.8127C141.534 65.7738 141.934 65.5942 142.26 65.2977C144.219 63.5626 145.395 61.6061 145.395 58.7857ZM149.893 40.3313C149.877 40.8648 149.998 41.3923 150.24 41.8529C150.483 42.3134 150.838 42.6882 151.265 42.934C152.228 43.5873 153.032 43.1517 153.815 42.7198C155.775 41.1988 156.951 39.0282 156.951 36.2041C156.951 34.0335 154.991 32.7303 153.417 34.0334C151.081 35.3366 150.098 37.5073 149.902 40.3313H149.893Z" fill="#050404"/>
<path d="M103.879 90.9175H111.525V88.7468H103.879V98.7434H100.548V85.9193H112.505C114.269 85.9193 115.052 86.9903 115.052 88.7397V91.1282C115.066 91.4751 115.015 91.8214 114.901 92.145C114.788 92.4686 114.615 92.7623 114.394 93.0076C114.172 93.2528 113.908 93.4441 113.616 93.5692C113.325 93.6944 113.013 93.7506 112.701 93.7344H111.133C112.701 95.4731 114.073 96.9904 115.631 98.9469H114.259C113.295 98.9469 111.907 99.1611 111.123 98.7291C110.16 98.2936 109.556 97.2082 108.772 96.3407C107.41 94.8447 106.031 93.5238 104.666 91.9886C104.346 91.6893 104.079 91.326 103.879 90.9175Z" fill="black"/>
<path d="M3.53063 88.5291V90.9175H11.9573C13.721 90.9175 14.5048 91.7886 14.5048 93.7415V95.9158C14.5048 97.4367 13.525 98.5221 11.9573 98.5221H2.5508C0.97984 98.5221 0.195968 97.6545 0 95.9158H10.9774V93.7451H2.54758C0.783869 93.7451 0 92.8776 0 90.9211V88.3184C0 86.5797 0.979837 85.7122 2.54758 85.7122H11.9573C13.525 85.7122 14.5048 86.5797 14.5048 88.5326L3.53063 88.5291Z" fill="black"/>
<path d="M83.2992 88.5291H72.325V90.9175H80.9476C82.3193 90.9175 83.2992 91.7887 83.2992 93.306V96.3478C83.2992 97.8651 82.3354 98.7363 80.9476 98.7363H71.1491C70.837 98.7525 70.5253 98.6962 70.2338 98.5711C69.9423 98.4459 69.6775 98.2546 69.4562 98.0094C69.2349 97.7642 69.0621 97.4704 68.9487 97.1468C68.8353 96.8232 68.7838 96.4769 68.7975 96.13H79.7718V93.9593H71.3355C69.5718 93.9593 68.7879 93.0918 68.5919 90.9175V88.5291C68.5787 88.1824 68.6305 87.8365 68.7441 87.5134C68.8577 87.1902 69.0306 86.8969 69.2518 86.652C69.473 86.4072 69.7377 86.2162 70.029 86.0913C70.3202 85.9664 70.6317 85.9102 70.9436 85.9264H80.742C82.3193 85.7086 83.1032 86.794 83.2992 88.5291Z" fill="black"/>
<path d="M138.18 93.7416V95.9158H148.958C148.958 96.9869 148.37 98.0865 147.586 98.3043C147.264 98.3982 146.937 98.4709 146.606 98.5221H134.652V92.874C134.652 91.5709 135.828 90.9175 137.004 90.9175H145.431V88.7468H134.652C134.456 87.2295 135.436 85.9264 136.612 85.9264H146.802C147.978 85.9264 148.762 86.9974 148.762 88.5291V91.3531C148.776 91.7 148.724 92.0463 148.611 92.3699C148.497 92.6935 148.325 92.9873 148.103 93.2325C147.882 93.4777 147.617 93.669 147.326 93.7942C147.034 93.9193 146.723 93.9756 146.41 93.9594H138.768C138.768 93.7416 138.572 93.7416 138.18 93.7416Z" fill="black"/>
<path d="M157.584 98.7363H152.685C152.372 98.7525 152.061 98.6963 151.769 98.5711C151.478 98.446 151.213 98.2547 150.992 98.0095C150.77 97.7642 150.598 97.4705 150.484 97.1469C150.371 96.8233 150.319 96.477 150.333 96.13V88.3149C150.333 86.794 151.313 85.9264 152.685 85.9264H162.483C163.855 85.9264 164.639 86.7939 164.639 88.0971V96.3478C164.639 97.8652 163.675 98.5185 162.287 98.5185C160.726 98.7092 159.154 98.782 157.584 98.7363ZM153.86 95.6945H161.503V88.5291H153.86V95.6945Z" fill="black"/>
<path d="M127.202 93.5238C126.418 92.0029 125.83 90.7033 125.047 88.9646C124.067 90.9175 123.087 92.8919 122.303 94.6091C121.715 95.6802 121.339 96.7798 120.735 97.6509C120.539 98.0829 120.343 98.3007 119.951 98.3007H116.418C116.545 98.1138 116.614 97.8855 116.614 97.6509C118.573 93.7237 120.533 90.05 122.297 86.1406C122.368 85.9239 122.505 85.7411 122.683 85.6228C122.861 85.5045 123.071 85.4579 123.276 85.4908H126.81C127.015 85.5286 127.214 85.6021 127.398 85.7086C129.557 89.8322 131.517 93.9593 133.672 98.3007H131.125C129.753 98.5185 128.969 98.0829 128.574 96.5656C128.378 96.13 128.185 95.9122 127.79 95.9122H121.911C122.441 95.0934 122.9 94.2207 123.283 93.306C123.283 93.0918 123.675 93.0918 123.871 93.0918C125.047 93.5238 126.026 93.5238 127.202 93.5238Z" fill="black"/>
<path d="M67.4258 98.5185H63.6992C63.5474 98.5046 63.405 98.4314 63.2973 98.3117C63.1897 98.1921 63.1237 98.0338 63.1113 97.8651C62.7194 96.3478 61.7395 96.13 60.5637 96.13C58.996 96.3478 57.4282 96.13 55.8605 96.13C56.3898 95.3107 56.8491 94.4381 57.2323 93.5238C57.2323 93.306 57.6242 93.306 57.8202 93.306H60.9557C60.1718 91.7887 59.5839 90.4856 58.8 88.9647C58.604 89.1824 58.604 89.4002 58.4081 89.618C57.0363 92.4384 55.8605 95.0447 54.4887 97.8651C54.2928 98.3007 54.0968 98.5185 53.7049 98.5185H50.171C50.367 98.3007 50.367 97.8651 50.563 97.6509C52.5226 93.7237 54.4823 90.05 56.246 86.3584C56.3384 86.1592 56.4792 85.9927 56.6524 85.8779C56.8255 85.763 57.0242 85.7044 57.2259 85.7086H60.7597C61.0537 85.7631 61.3266 85.9134 61.5436 86.1406C63.5032 90.4855 65.4661 94.3913 67.4258 98.5185Z" fill="black"/>
<path d="M31.5572 98.5184C32.1451 97.4474 32.537 96.5655 32.929 95.6944C34.4967 92.6562 36.0645 89.4002 37.6322 86.1406C37.7032 85.9272 37.8371 85.7468 38.0121 85.6288C38.1871 85.5108 38.3929 85.4622 38.596 85.4908H42.1298C42.4061 85.4585 42.6837 85.5356 42.9137 85.7086C44.8766 89.8321 47.0322 93.9593 49.1879 98.3007H46.6403C45.4645 98.5184 44.8766 98.0829 44.4847 96.7798C44.2887 96.13 43.8935 95.9122 43.3056 95.9122H37.6322C38.1622 95.0933 38.6215 94.2207 39.004 93.306C39.004 93.0917 39.3959 93.0918 39.5919 93.0918H42.7434C41.9596 91.5709 41.3716 90.2677 40.5878 88.529C40.3918 88.7468 40.3918 89.1824 40.1959 89.4002C38.8241 92.0028 37.6483 94.8269 36.2765 97.4331C36.205 97.6498 36.0686 97.8327 35.8902 97.951C35.7118 98.0693 35.5023 98.1158 35.2967 98.0829C33.9088 98.5184 32.929 98.5184 31.5572 98.5184Z" fill="black"/>
<path d="M84.475 88.529V85.7085H98.7838V88.529H93.2967V98.5256H89.9685V88.529H84.475Z" fill="black"/>
<path d="M20.1879 90.9175H27.05V85.7085H30.3815V98.3006H27.05V93.5237H20.1879V90.9175Z" fill="black"/>
<path d="M19.2082 98.5184H16.0792V85.7085H19.2146L19.2082 98.5184Z" fill="black"/>
<path d="M169.538 93.9593V96.13H180.319C180.319 97.2011 179.731 98.3007 178.947 98.5185C178.625 98.6124 178.298 98.6851 177.968 98.7363H166.01V93.0918C166.01 91.7887 167.186 91.1353 168.362 91.1353H176.792V88.9646H166.01C165.814 87.4437 166.794 86.1406 167.97 86.1406H178.164C179.339 86.1406 180.123 87.2117 180.123 88.7468V91.5709C180.137 91.9178 180.086 92.2641 179.972 92.5877C179.859 92.9113 179.686 93.2051 179.465 93.4503C179.243 93.6955 178.979 93.8868 178.687 94.0119C178.396 94.1371 178.084 94.1933 177.772 94.1771H170.126C170.126 93.9593 169.93 93.9593 169.538 93.9593Z" fill="black"/>
<path d="M185.218 93.9593V96.13H196C196 97.2011 195.412 98.3007 194.628 98.5185C194.311 98.6117 193.989 98.6845 193.664 98.7363H181.691V93.0918C181.691 91.7887 182.867 91.1353 184.043 91.1353H192.473V88.9646H181.691C181.495 87.4437 182.475 86.1406 183.651 86.1406H193.844C195.02 86.1406 195.804 87.2117 195.804 88.7468V91.5709C195.818 91.9178 195.766 92.2641 195.653 92.5877C195.539 92.9113 195.367 93.2051 195.145 93.4503C194.924 93.6955 194.659 93.8868 194.368 94.0119C194.076 94.1371 193.765 94.1933 193.452 94.1771H185.806C185.806 93.9593 185.61 93.9593 185.218 93.9593Z" fill="black"/>
</svg>
