<svg id="Layer_1" data-name="Layer 1" xmlns="http://www.w3.org/2000/svg" viewBox="0 0 887.01 499.96"><defs><style>.cls-1{fill:#feffd9;}</style></defs><title>30</title><path class="cls-1" d="M531.54,658.46q22.35,25.72,22.36,62.26A101.48,101.48,0,0,1,537.79,776q-16.11,25.49-49,41.11t-81.49,15.62a291.13,291.13,0,0,1-70.43-8.65q-34.86-8.65-60.34-24.52l34.62-71.64a155,155,0,0,0,44.47,20.68,173.79,173.79,0,0,0,48.8,7.21q24.51,0,38.94-9.14t14.42-26q0-32.69-51.44-32.69H366.4v-60.1L426.49,563H293.8V489.47H537.07v59.62l-69.71,75Q509.18,632.75,531.54,658.46Z" transform="translate(-276.49 -482.74)"/><path class="cls-1" d="M656.3,812.07q-33.66-20.67-52.65-60.34t-19-94q0-54.32,19-94t52.65-60.33q33.65-20.67,76.92-20.68,42.78,0,76.44,20.68t52.65,60.33q19,39.66,19,94t-19,94q-19,39.66-52.65,60.34t-76.44,20.67Q689.95,832.74,656.3,812.07Zm115.14-80.53q14.17-23.31,14.18-73.8t-14.18-73.8q-14.18-23.31-38.22-23.31-24.53,0-38.7,23.31t-14.18,73.8q0,50.49,14.18,73.8t38.7,23.32Q757.27,754.86,771.44,731.54Z" transform="translate(-276.49 -482.74)"/><path class="cls-1" d="M1163.51,692.84h-81.25v79.32h-74V692.84H926.49V622.65h81.73V543.32h74v79.33h81.25Z" transform="translate(-276.49 -482.74)"/><path class="cls-1" d="M349,966.68v15.06H276.49V885.05h70.58v15.06H294.45v25.14h46.69V940H294.45v26.65Z" transform="translate(-276.49 -482.74)"/><path class="cls-1" d="M435.48,908l-31.63,73.76H386L354.4,908h18l22.93,54.7L418.9,908Z" transform="translate(-276.49 -482.74)"/><path class="cls-1" d="M513.24,950.38H455.36a20.07,20.07,0,0,0,7.95,12.92q6.42,4.77,15.95,4.77,12.15,0,20-8l9.25,10.64a31.22,31.22,0,0,1-12.57,9,49.87,49.87,0,0,1-38.53-1.8,34.71,34.71,0,0,1-14.3-13.47,38,38,0,0,1-5-19.54,38.61,38.61,0,0,1,4.9-19.41A34.81,34.81,0,0,1,456.61,912a39.7,39.7,0,0,1,19.61-4.84,38.7,38.7,0,0,1,19.27,4.77,33.72,33.72,0,0,1,13.26,13.4,40.65,40.65,0,0,1,4.76,19.95C513.51,946.47,513.42,948.18,513.24,950.38Zm-51-24.51a20.65,20.65,0,0,0-7,13h41.86a20.18,20.18,0,0,0-20.86-18A20.82,20.82,0,0,0,462.2,925.87Z" transform="translate(-276.49 -482.74)"/><path class="cls-1" d="M594.31,915.3q8.43,8.16,8.43,24.17v42.27H585.47V941.68q0-9.66-4.55-14.57t-13-4.9q-9.52,0-15,5.73t-5.53,16.5v37.3H530.09V908h16.43v9.53a27.1,27.1,0,0,1,10.78-7.73,38.7,38.7,0,0,1,14.64-2.63Q585.89,907.15,594.31,915.3Z" transform="translate(-276.49 -482.74)"/><path class="cls-1" d="M669,977.73a20.35,20.35,0,0,1-7.39,3.73,33.28,33.28,0,0,1-9.19,1.24q-12.15,0-18.78-6.35t-6.63-18.51V922.35H614.89V908.53h12.16V891.68h17.26v16.85h19.76v13.82H644.31v35.08q0,5.39,2.63,8.22t7.59,2.83a15.15,15.15,0,0,0,9.67-3Z" transform="translate(-276.49 -482.74)"/><path class="cls-1" d="M688.51,980.36a44.23,44.23,0,0,1-13.67-5.94l6.63-13.12a42.42,42.42,0,0,0,11.95,5.31,49.46,49.46,0,0,0,13.74,2q15.47,0,15.47-8.15,0-3.87-3.94-5.39a67.91,67.91,0,0,0-12.64-2.9A102,102,0,0,1,691.21,949a22.72,22.72,0,0,1-10-6.28q-4.21-4.49-4.21-12.5,0-10.5,8.77-16.78t23.69-6.29a68.4,68.4,0,0,1,15.19,1.73,42.29,42.29,0,0,1,12.43,4.63l-6.63,13.12a40.91,40.91,0,0,0-21.13-5.53q-7.61,0-11.53,2.28t-3.94,6q0,4.14,4.21,5.87a67.55,67.55,0,0,0,13,3.25,101.73,101.73,0,0,1,14.51,3.17,22.84,22.84,0,0,1,9.74,6.08q4.07,4.29,4.07,12.16,0,10.35-9,16.57t-24.45,6.21A66.27,66.27,0,0,1,688.51,980.36Z" transform="translate(-276.49 -482.74)"/></svg>