<svg id="Layer_1" data-name="Layer 1" xmlns="http://www.w3.org/2000/svg" viewBox="0 0 969 500.59"><defs><style>.cls-1{fill:#feffd9;}</style></defs><title>4k</title><path class="cls-1" d="M569,752.15H517v67H420.5v-67h-185v-64.5l157-218.5H495L352.5,673.65h71v-59.5H517v59.5h52Z" transform="translate(-235.5 -469.15)"/><path class="cls-1" d="M742,692.15l-37,39.5v87.5H607v-350h98v145.5l135.5-145.5h109l-143,155,150.5,195H842Z" transform="translate(-235.5 -469.15)"/><path class="cls-1" d="M1204.5,680.65H1120v82.5h-77v-82.5H958v-73h85v-82.5h77v82.5h84.5Z" transform="translate(-235.5 -469.15)"/><path class="cls-1" d="M300.46,941.23l-20.28-29.07c-.85.09-2.13.14-3.83.14H253.94v28.93H235.5V842h40.85q12.9,0,22.48,4.26a32.67,32.67,0,0,1,14.68,12.2q5.1,7.94,5.1,18.86,0,11.21-5.46,19.29a32.41,32.41,0,0,1-15.67,12.05l22.84,32.62Zm-6.67-78.57q-6.24-5.1-18.29-5.11H253.94v39.58H275.5q12,0,18.29-5.18T300,877.27Q300,867.78,293.79,862.66Z" transform="translate(-235.5 -469.15)"/><path class="cls-1" d="M408.39,909H349a20.58,20.58,0,0,0,8.16,13.26q6.6,4.89,16.38,4.89,12.48,0,20.57-8.22l9.5,10.92a32,32,0,0,1-12.91,9.22,51.11,51.11,0,0,1-39.57-1.85,35.72,35.72,0,0,1-14.68-13.83,39,39,0,0,1-5.17-20.06,39.59,39.59,0,0,1,5-19.93,35.72,35.72,0,0,1,14-13.83,40.76,40.76,0,0,1,20.14-5,39.78,39.78,0,0,1,19.79,4.89,34.65,34.65,0,0,1,13.61,13.76,41.73,41.73,0,0,1,4.89,20.49C408.67,905,408.58,906.77,408.39,909ZM356,883.86a21.21,21.21,0,0,0-7.16,13.41h43a20.72,20.72,0,0,0-21.42-18.44A21.44,21.44,0,0,0,356,883.86Z" transform="translate(-235.5 -469.15)"/><path class="cls-1" d="M500.86,865.5v64.25q0,40-40.84,40A75.9,75.9,0,0,1,439.31,967a43.93,43.93,0,0,1-16.17-8l7.94-13.33a38.07,38.07,0,0,0,12.55,6.6A49.36,49.36,0,0,0,459,954.71q12.48,0,18.3-5.68t5.81-17.3v-4a29.18,29.18,0,0,1-11.06,7.52,39,39,0,0,1-14.32,2.55,41.09,41.09,0,0,1-19.5-4.61,34.54,34.54,0,0,1-13.76-13,38.75,38.75,0,0,1,0-38.22,34.18,34.18,0,0,1,13.76-12.83,41.53,41.53,0,0,1,19.5-4.54,40.08,40.08,0,0,1,15,2.69A27.57,27.57,0,0,1,484,875.57V865.5ZM477,916.77q6.46-6,6.46-15.67T477,885.64q-6.45-6-16.52-6t-16.66,6q-6.46,6-6.46,15.46t6.46,15.67q6.45,6,16.66,6T477,916.77Z" transform="translate(-235.5 -469.15)"/><path class="cls-1" d="M525,850a10.47,10.47,0,0,1,0-15.18,11.41,11.41,0,0,1,8.09-3,11.71,11.71,0,0,1,8.08,2.91,9.38,9.38,0,0,1,3.26,7.3,10.67,10.67,0,0,1-3.19,7.87,11,11,0,0,1-8.15,3.2A11.41,11.41,0,0,1,525,850Zm-.85,15.53h17.73v75.73H524.12Z" transform="translate(-235.5 -469.15)"/><path class="cls-1" d="M570.5,939.82a45.34,45.34,0,0,1-14-6.1l6.81-13.48a43.74,43.74,0,0,0,12.27,5.46,50.62,50.62,0,0,0,14.11,2.06q15.89,0,15.89-8.37c0-2.64-1.35-4.49-4-5.53a70.43,70.43,0,0,0-13-3,104.43,104.43,0,0,1-15.25-3.26,23.42,23.42,0,0,1-10.21-6.45q-4.34-4.6-4.33-12.84,0-10.77,9-17.23t24.32-6.45a70.29,70.29,0,0,1,15.6,1.77,43.9,43.9,0,0,1,12.77,4.75l-6.81,13.47a42,42,0,0,0-21.7-5.67q-7.8,0-11.84,2.34c-2.7,1.56-4,3.62-4,6.17q0,4.26,4.32,6a69,69,0,0,0,13.41,3.33,105.77,105.77,0,0,1,14.89,3.26,23.37,23.37,0,0,1,10,6.24q4.17,4.41,4.18,12.48,0,10.65-9.22,17t-25.1,6.38A68.06,68.06,0,0,1,570.5,939.82Z" transform="translate(-235.5 -469.15)"/><path class="cls-1" d="M683.68,937.12a21,21,0,0,1-7.59,3.83,34.26,34.26,0,0,1-9.43,1.28q-12.49,0-19.29-6.53t-6.81-19V880.25H628.08V866.06h12.48v-17.3h17.73v17.3h20.28v14.19H658.29v36c0,3.69.89,6.5,2.69,8.44s4.4,2.91,7.8,2.91a15.59,15.59,0,0,0,9.93-3.12Z" transform="translate(-235.5 -469.15)"/><path class="cls-1" d="M742.11,864.65v16.87a22.73,22.73,0,0,0-4.11-.42q-10.37,0-16.17,6T716,904.5v36.73H698.28V865.5h16.88v11.06Q722.83,864.65,742.11,864.65Z" transform="translate(-235.5 -469.15)"/><path class="cls-1" d="M811.25,872.66q8.87,8,8.87,24.18v44.39H803.38V932a20.63,20.63,0,0,1-9.29,7.58,36.29,36.29,0,0,1-14.54,2.63,35.61,35.61,0,0,1-14.89-2.91,23.08,23.08,0,0,1-9.86-8.08,20.51,20.51,0,0,1-3.47-11.71,20.07,20.07,0,0,1,7.59-16.38Q766.5,897,782.81,897h19.58v-1.13q0-8-4.75-12.2t-14.12-4.25a40.88,40.88,0,0,0-12.55,2,31,31,0,0,0-10.42,5.53L753.6,874a43,43,0,0,1,14.32-7,63.66,63.66,0,0,1,17.73-2.41Q802.39,864.65,811.25,872.66Zm-16.17,53.61a16.61,16.61,0,0,0,7.31-8.72v-8.79h-18.3q-15.32,0-15.32,10.06a9,9,0,0,0,3.83,7.66q3.84,2.85,10.64,2.84A22.82,22.82,0,0,0,795.08,926.27Z" transform="translate(-235.5 -469.15)"/><path class="cls-1" d="M888.34,937.12a21,21,0,0,1-7.59,3.83,34.26,34.26,0,0,1-9.43,1.28q-12.5,0-19.29-6.53t-6.81-19V880.25H832.74V866.06h12.48v-17.3H863v17.3h20.28v14.19H863v36q0,5.54,2.69,8.44t7.8,2.91a15.59,15.59,0,0,0,9.93-3.12Z" transform="translate(-235.5 -469.15)"/><path class="cls-1" d="M903.79,850a10.47,10.47,0,0,1,0-15.18,11.41,11.41,0,0,1,8.09-3,11.69,11.69,0,0,1,8.08,2.91,9.35,9.35,0,0,1,3.26,7.3,10.67,10.67,0,0,1-3.19,7.87,11,11,0,0,1-8.15,3.2A11.41,11.41,0,0,1,903.79,850Zm-.85,15.53h17.73v75.73H902.94Z" transform="translate(-235.5 -469.15)"/><path class="cls-1" d="M957.26,937.26a36.09,36.09,0,0,1-14.39-13.83,41.32,41.32,0,0,1,0-40.06,36.32,36.32,0,0,1,14.39-13.76,46,46,0,0,1,41.56,0,36.38,36.38,0,0,1,14.39,13.76,41.32,41.32,0,0,1,0,40.06,36.15,36.15,0,0,1-14.39,13.83,45.93,45.93,0,0,1-41.56,0Zm36.88-16.73q6.38-6.53,6.38-17.16t-6.38-17.17A21.71,21.71,0,0,0,978,879.68a21.46,21.46,0,0,0-16.1,6.52q-6.32,6.52-6.31,17.17t6.31,17.16a21.42,21.42,0,0,0,16.1,6.52A21.67,21.67,0,0,0,994.14,920.53Z" transform="translate(-235.5 -469.15)"/><path class="cls-1" d="M1101.36,873q8.64,8.38,8.65,24.83v43.39h-17.73V900.1q0-9.92-4.68-15t-13.33-5q-9.8,0-15.46,5.88t-5.67,17v38.29h-17.73V865.5h16.87v9.78a27.8,27.8,0,0,1,11.07-7.94,39.9,39.9,0,0,1,15-2.69Q1092.71,864.65,1101.36,873Z" transform="translate(-235.5 -469.15)"/><path class="cls-1" d="M1138,939.82a45.16,45.16,0,0,1-14-6.1l6.81-13.48A43.68,43.68,0,0,0,1143,925.7a50.67,50.67,0,0,0,14.11,2.06q15.89,0,15.89-8.37c0-2.64-1.35-4.49-4-5.53a70.22,70.22,0,0,0-13-3,104.72,104.72,0,0,1-15.25-3.26,23.48,23.48,0,0,1-10.21-6.45q-4.32-4.6-4.32-12.84,0-10.77,9-17.23t24.33-6.45a70.29,70.29,0,0,1,15.6,1.77,43.82,43.82,0,0,1,12.76,4.75l-6.81,13.47a42,42,0,0,0-21.7-5.67q-7.8,0-11.84,2.34t-4,6.17q0,4.26,4.33,6a68.83,68.83,0,0,0,13.4,3.33,105.45,105.45,0,0,1,14.89,3.26,23.31,23.31,0,0,1,10,6.24q4.19,4.41,4.18,12.48,0,10.65-9.22,17t-25.1,6.38A68.06,68.06,0,0,1,1138,939.82Z" transform="translate(-235.5 -469.15)"/></svg>