<svg id="Layer_1" data-name="Layer 1" xmlns="http://www.w3.org/2000/svg" viewBox="0 0 858.33 500.47"><defs><style>.cls-1{fill:#feffd9;}</style></defs><title>75</title><path class="cls-1" d="M575.15,472.71v60.78L454.07,815.84H348.19L463.88,549.67h-90.2v52.94H290.84V472.71Z" transform="translate(-290.84 -472.71)"/><path class="cls-1" d="M833.23,627.12q34.57,29.42,34.57,78.43a109.7,109.7,0,0,1-16.43,58.58q-16.43,26.72-50,42.64t-83.09,15.94a296.56,296.56,0,0,1-71.81-8.83q-35.55-8.82-61-25l34.81-73a166.3,166.3,0,0,0,45.34,21.08,174,174,0,0,0,49.76,7.36q25,0,39.94-9.56t15-26.72q0-17.16-14.7-26t-52-8.82H610.44L627.6,472.71H846.23v75H708l-4.41,50h23Q798.68,597.71,833.23,627.12Z" transform="translate(-290.84 -472.71)"/><path class="cls-1" d="M1149.16,680.06h-82.84v80.88H990.83V680.06H907.5V608.49h83.33V527.61h75.49v80.88h82.84Z" transform="translate(-290.84 -472.71)"/><path class="cls-1" d="M320.4,965.64a55.52,55.52,0,0,1-21.71-20.81,60.85,60.85,0,0,1,.08-59.93,56.14,56.14,0,0,1,21.79-20.81,63.84,63.84,0,0,1,31-7.53A64.86,64.86,0,0,1,377,861.41a51.82,51.82,0,0,1,19.44,14.1L382.83,888.3A39.67,39.67,0,0,0,352.55,875a42.5,42.5,0,0,0-20.9,5.1,36.77,36.77,0,0,0-14.41,14.17,43.43,43.43,0,0,0,0,41.14,36.73,36.73,0,0,0,14.41,14.18,42.5,42.5,0,0,0,20.9,5.1,39.42,39.42,0,0,0,30.28-13.45l13.61,13a51.68,51.68,0,0,1-19.52,14.09,65.26,65.26,0,0,1-25.51,4.86A63.84,63.84,0,0,1,320.4,965.64Z" transform="translate(-290.84 -472.71)"/><path class="cls-1" d="M415.71,867.33a12,12,0,0,1,0-17.33,13,13,0,0,1,9.23-3.49,13.42,13.42,0,0,1,9.24,3.32,10.73,10.73,0,0,1,3.72,8.35,12.18,12.18,0,0,1-3.64,9,12.59,12.59,0,0,1-9.32,3.65A13,13,0,0,1,415.71,867.33Zm-1,17.73H435v86.49H414.74Z" transform="translate(-290.84 -472.71)"/><path class="cls-1" d="M513.54,966.86a23.93,23.93,0,0,1-8.67,4.37,39.08,39.08,0,0,1-10.77,1.46q-14.25,0-22-7.45t-7.77-21.71V901.91H450.05v-16.2H464.3V866h20.24v19.76h23.17v16.2H484.54v41.14q0,6.32,3.08,9.63t8.91,3.32a17.77,17.77,0,0,0,11.34-3.56Z" transform="translate(-290.84 -472.71)"/><path class="cls-1" d="M531.19,867.33a11.93,11.93,0,0,1,0-17.33,13,13,0,0,1,9.23-3.49,13.38,13.38,0,0,1,9.23,3.32,10.71,10.71,0,0,1,3.73,8.35,12.18,12.18,0,0,1-3.64,9,12.59,12.59,0,0,1-9.32,3.65A13,13,0,0,1,531.19,867.33Zm-1,17.73h20.24v86.49H530.22Z" transform="translate(-290.84 -472.71)"/><path class="cls-1" d="M658,934.79H590.14a23.52,23.52,0,0,0,9.32,15.14q7.53,5.6,18.7,5.59,14.25,0,23.49-9.4l10.85,12.47a36.46,36.46,0,0,1-14.74,10.53,53.58,53.58,0,0,1-20.08,3.57q-14.25,0-25.11-5.67a40.89,40.89,0,0,1-16.76-15.79,44.62,44.62,0,0,1-5.91-22.92,45.21,45.21,0,0,1,5.75-22.76,40.76,40.76,0,0,1,16-15.79,46.54,46.54,0,0,1,23-5.67,45.38,45.38,0,0,1,22.6,5.59,39.48,39.48,0,0,1,15.54,15.71,47.59,47.59,0,0,1,5.59,23.4C658.33,930.2,658.22,932.19,658,934.79ZM598.16,906a24.16,24.16,0,0,0-8.18,15.3h49.08a23.86,23.86,0,0,0-7.94-15.22q-6.64-5.83-16.52-5.83A24.43,24.43,0,0,0,598.16,906Z" transform="translate(-290.84 -472.71)"/><path class="cls-1" d="M683.92,969.93q-10-2.74-16-7l7.77-15.39a50.23,50.23,0,0,0,14,6.24,58.39,58.39,0,0,0,16.12,2.35q18.13,0,18.14-9.56,0-4.53-4.62-6.32t-14.82-3.4a120.69,120.69,0,0,1-17.41-3.72,26.76,26.76,0,0,1-11.66-7.37q-4.95-5.26-4.94-14.66,0-12.3,10.28-19.68t27.78-7.37a80.19,80.19,0,0,1,17.82,2,50,50,0,0,1,14.57,5.42l-7.77,15.39a48,48,0,0,0-24.78-6.48q-8.91,0-13.53,2.67t-4.61,7c0,3.24,1.64,5.53,4.94,6.88s8.39,2.62,15.3,3.81a118.89,118.89,0,0,1,17,3.72,26.67,26.67,0,0,1,11.42,7.13q4.77,5,4.78,14.25,0,12.15-10.53,19.44t-28.67,7.29A77.23,77.23,0,0,1,683.92,969.93Z" transform="translate(-290.84 -472.71)"/></svg>